<svg width="182" height="182" viewBox="0 0 182 182" fill="none" xmlns="http://www.w3.org/2000/svg">
<path d="M182 90.7425C182 140.858 141.258 181.485 91 181.485C40.7421 181.485 0 140.858 0 90.7425C0 40.6268 40.7421 0 91 0C141.258 0 182 40.6268 182 90.7425Z" fill="#D9D9D9"/>
<path d="M89.7534 125.548C58.8384 125.548 41.137 151.652 36.1507 164.704C80.0301 196.029 126.735 177.756 144.603 164.704C139.201 151.652 120.668 125.548 89.7534 125.548Z" fill="#70777F"/>
<path d="M62.3288 80.1766C62.3288 108.021 81.0274 112.496 90.3767 111.253C99.726 112.496 118.425 108.021 118.425 80.1766C118.425 62.1524 99.726 47.8574 90.3767 49.1004C81.0274 47.8574 62.3288 62.1524 62.3288 80.1766Z" fill="#70777F"/>
</svg>
