<svg width="123" height="144" viewBox="0 0 123 144" fill="none" xmlns="http://www.w3.org/2000/svg">
<path fill-rule="evenodd" clip-rule="evenodd" d="M20.0768 97.5728H13.2815L26.4602 45.9316H35.9324C37.6483 46.1619 40.8332 47.8315 39.8448 52.6674C38.8564 57.5034 35.3146 70.3417 33.6673 76.1564C33.3241 77.9987 31.6081 81.6832 27.4898 81.6832H23.9892L20.0768 97.5728ZM23.5777 76.6747H26.0487C26.5292 76.6747 27.6137 76.1911 28.1079 74.2567L33.2804 51.804C33.4933 50.9405 31.7566 50.5605 31.4272 51.804L26.4605 73.2205C26.2546 74.3719 25.3898 76.6747 23.5777 76.6747Z" fill="black"/>
<path fill-rule="evenodd" clip-rule="evenodd" d="M51.0992 97.7456L64.072 45.9316H72.9265C74.8483 46.2195 78.4862 47.9006 77.6625 52.322C76.8389 56.7435 71.0046 79.9561 68.1904 91.0098C67.7099 93.255 65.5134 97.7456 60.5714 97.7456H51.0992ZM56.8649 93.0798H59.3359C59.8164 93.0798 60.9009 92.5962 61.3951 90.6619C61.8893 88.7275 67.9158 64.2944 70.8673 52.3196C71.0801 51.456 69.3435 51.0761 69.014 52.3196L59.7478 89.6256C59.5419 90.777 58.677 93.0798 56.8649 93.0798Z" fill="black"/>
<path d="M89.0975 97.9515L101.808 45.9316H108.467L98.3785 87.2007C97.3697 91.0155 95.1504 92.4027 94.3433 92.4027H104.431L103.019 97.9515H89.0975Z" fill="black"/>
<path d="M11.8982 19.3683L0 34.3102C4.88839 35.417 16.4361 37.6306 23.5196 37.6306C21.0846 30.7684 14.7574 22.5965 11.8982 19.3683Z" fill="black"/>
<path d="M110.68 19.3683L122.579 34.3102C117.69 35.417 106.142 37.6306 99.0589 37.6306C101.494 30.7684 107.821 22.5965 110.68 19.3683Z" fill="black"/>
<path d="M85.7774 39.2916C65.1908 41.5052 44.5489 40.2139 36.8013 39.2916C35.1411 28.5002 26.2866 16.8788 21.5827 11.8982C29.3303 7.19424 43.7188 0 63.0879 0C82.457 0 94.3551 7.19424 100.443 13.005C91.8648 23.5196 89.0978 29.0536 85.7774 39.2916Z" fill="black"/>
<path d="M11.8982 124.632L0 109.69C4.88839 108.583 16.4361 106.369 23.5196 106.369C21.0846 113.232 14.7574 121.404 11.8982 124.632Z" fill="black"/>
<path d="M110.68 124.632L122.579 109.69C117.69 108.583 106.142 106.369 99.0589 106.369C101.494 113.232 107.821 121.404 110.68 124.632Z" fill="black"/>
<path d="M85.7774 104.708C65.1908 102.495 44.5489 103.786 36.8013 104.708C35.1411 115.5 26.2866 127.121 21.5827 132.102C29.3303 136.806 43.7188 144 63.0879 144C82.457 144 94.3551 136.806 100.443 130.995C91.8648 120.48 89.0978 114.946 85.7774 104.708Z" fill="black"/>
</svg>
