<svg width="82" height="80" viewBox="0 0 82 80" fill="none" xmlns="http://www.w3.org/2000/svg">
<path d="M65.3367 0.443769C65.6174 0.314811 66.0422 0.155509 66.2849 0.0948225C66.5808 0.0189645 67.0056 -0.0113787 67.6276 0.0037929C68.3862 0.0265503 68.6138 0.0568935 68.9931 0.216195C69.2434 0.322397 70.3888 0.929261 71.5343 1.56647C72.6798 2.21126 73.7494 2.84088 73.9087 2.96984C74.0755 3.0988 74.341 3.40982 74.5079 3.66015C74.6672 3.91048 74.8721 4.33529 74.9555 4.60838C75.0541 4.94974 75.0996 5.32144 75.0996 5.80693C75.0996 6.18622 75.0465 6.77033 74.9783 7.09652C74.9176 7.41512 74.7128 8.1206 74.5307 8.66678C74.3562 9.21296 73.9921 10.146 73.7342 10.7529C73.4763 11.3597 72.8239 12.7555 72.2853 13.8631C71.7467 14.9706 71.3143 15.8809 71.3295 15.8809C71.3371 15.8885 71.466 15.9492 71.6102 16.025C71.7543 16.1009 72.7632 16.6622 73.848 17.2767C75.4258 18.1718 75.8961 18.4828 76.2072 18.809C76.4651 19.0745 76.6471 19.3628 76.7609 19.6662C76.8747 19.9696 76.9278 20.2958 76.9278 20.6523C76.9354 20.9937 76.8823 21.3199 76.7913 21.5626C76.7078 21.7675 76.0554 22.8598 75.3272 23.9901C74.6066 25.1204 73.6052 26.6527 73.1046 27.4037C72.6039 28.1547 71.7846 29.3457 71.284 30.0587C70.8338 30.6904 70.33 31.3875 70.0837 31.7283L70.002 31.8414C69.7972 32.1145 69.6379 32.3497 69.6379 32.3724C69.6379 32.3952 70.6923 32.0766 71.9743 31.6669C73.4687 31.189 74.4776 30.9084 74.7962 30.878C75.1376 30.8477 75.441 30.878 75.7824 30.9615C76.1465 31.0601 76.8292 31.4166 78.3995 32.3345C79.7118 33.1007 80.6524 33.6999 80.8573 33.9048C81.0393 34.0792 81.2896 34.4358 81.4034 34.6861C81.5248 34.9364 81.6386 35.3309 81.6689 35.5585C81.6993 35.8391 81.6765 36.135 81.5931 36.4688C81.5248 36.7418 81.3579 37.1363 81.2138 37.3411C81.0772 37.5535 80.8193 37.8418 80.6297 37.9935C80.4476 38.1452 80.1973 38.3197 80.0683 38.388C79.9394 38.4486 79.3477 38.6459 78.7408 38.8204C78.1339 38.9948 76.7002 39.45 75.5548 39.8217C74.4093 40.201 72.6646 40.7927 71.686 41.1492C70.7075 41.5057 69.1524 42.0974 68.2345 42.4615C67.3166 42.8257 65.8146 43.4553 64.8967 43.8497C63.9788 44.2442 62.492 44.9042 61.5969 45.3062C60.7018 45.7083 58.6688 46.6868 57.0834 47.4682C55.4979 48.2571 53.4877 49.2812 52.6077 49.7439C51.7354 50.2142 50.112 51.1018 49.0045 51.7162C47.8969 52.3307 46.0915 53.3623 44.984 54.0071C43.8765 54.6595 42.3062 55.5926 41.4945 56.0932C40.6828 56.5939 39.1126 57.5725 38.0051 58.2779C36.8975 58.9834 34.9176 60.273 33.6053 61.1454C32.2929 62.0253 30.2751 63.3984 29.1297 64.1949C27.9842 64.9914 26.2774 66.2051 25.3368 66.8878C24.3961 67.5705 22.7273 68.8146 21.6197 69.6491C20.5122 70.4835 18.8054 71.8034 17.8268 72.5772C16.8483 73.3509 15.5511 74.3902 14.9442 74.8833C14.3374 75.3763 13.0174 76.4839 12.0009 77.3411C11.0722 78.1312 10.1372 78.9149 9.80326 79.1948L9.72519 79.2603C9.49003 79.4499 9.08798 79.6775 8.83765 79.7761C8.58732 79.8671 8.16251 79.9657 7.88943 79.9885C7.55565 80.0188 7.24463 79.9885 6.92603 79.9051C6.66053 79.8368 5.43921 79.2754 4.19514 78.6534C2.54902 77.8265 1.84354 77.4397 1.61597 77.2121C1.43391 77.0376 1.20633 76.7645 1.10013 76.5976C0.993932 76.4308 0.842216 76.0894 0.758772 75.8391C0.675328 75.5887 0.607056 75.1791 0.607056 74.9288C0.607056 74.6784 0.758772 73.5102 0.948417 72.3344C1.13806 71.151 1.53252 68.7691 1.82837 67.0395C2.11663 65.31 2.60971 62.5108 2.92073 60.8192C3.23174 59.1275 3.80826 56.1084 4.20273 54.1057C4.59719 52.1031 5.18129 49.2205 5.4999 47.6957C5.8185 46.171 6.44054 43.3036 6.87293 41.3237C7.3129 39.3438 7.9577 36.4763 8.31423 34.9516C8.67076 33.4268 9.40659 30.3698 9.94518 28.1623C10.4914 25.9548 11.1437 23.3529 11.3941 22.3971C11.6444 21.4413 11.9327 20.493 12.0313 20.2958C12.1299 20.091 12.365 19.78 12.5547 19.5903C12.7443 19.4007 13.1009 19.1428 13.3512 19.0214C13.6015 18.9 14.0188 18.7635 14.2843 18.718C14.5953 18.6725 14.9215 18.6725 15.2477 18.718C15.6497 18.7787 16.1883 19.0138 18.1151 19.9696C20.0343 20.9254 20.5501 21.2137 20.8232 21.4868C21.0129 21.6764 21.2556 22.0254 21.3694 22.2681C21.4984 22.5488 21.5818 22.875 21.6046 23.1936C21.6273 23.5956 21.5742 23.9294 21.2935 25.0521C21.1039 25.8031 20.535 28.1395 20.0343 30.2484C19.5336 32.3572 18.8357 35.3764 18.4792 36.9618C18.1227 38.5473 17.842 39.8596 17.8648 39.8824C17.8875 39.9051 18.0544 39.761 18.244 39.5638C18.4337 39.3589 18.7675 39.1086 18.9875 39.0024C19.2605 38.8583 19.5488 38.7824 20.4439 38.7217L20.8611 38.2818C21.1418 37.9935 21.4528 37.7659 21.8094 37.5914C22.31 37.3563 22.3859 37.3411 24.0093 37.3411L24.9195 37.7811C25.6402 38.13 25.845 38.1983 25.9057 38.1225C25.9512 38.0694 26.285 37.6142 26.6567 37.1135C27.0284 36.6129 27.6277 35.8088 27.9842 35.3309C28.3407 34.853 29.0159 34.0792 29.471 33.6241C29.9338 33.1538 30.5937 32.6 30.9503 32.3572C31.3068 32.1221 31.9516 31.758 32.3916 31.5532C32.8315 31.3483 33.3474 31.1359 33.5522 31.0904C33.7494 31.0449 34.0529 31.007 34.2349 31.007C34.4094 31.007 34.7507 31.0601 34.9935 31.1208C35.2287 31.1814 35.9265 31.5 36.5334 31.8262C37.2161 32.1904 37.6561 32.38 37.694 32.3345C37.732 32.289 37.9216 32.0007 38.1188 31.6897C38.3161 31.3787 38.794 30.7111 39.1809 30.2105C39.5677 29.7098 40.1518 29.0119 40.478 28.663C40.8042 28.314 41.2973 27.8664 41.5704 27.6616C41.8435 27.4568 42.2835 27.1761 42.5565 27.032C42.8296 26.8879 43.3227 26.6982 43.6565 26.6072C43.9903 26.5238 44.4151 26.4555 44.6047 26.4555C44.9309 26.4555 44.9537 26.4403 45.1357 26.099C45.2419 25.9093 45.515 25.5831 45.7426 25.3783C45.9701 25.1659 46.3419 24.9156 46.5618 24.817C46.7742 24.7183 47.2218 24.597 47.548 24.5439C48.0487 24.468 48.208 24.4756 48.6631 24.5818C49.0424 24.6804 49.7175 24.9914 51.0526 25.7121C52.0767 26.2658 53.0705 26.8044 53.6318 27.1382L54.1932 26.2886C54.7014 25.5148 54.7621 25.3783 54.8455 24.8625C54.8986 24.5515 55.0883 23.5577 55.2703 22.6626C55.4524 21.7675 55.7558 20.402 55.9455 19.6283C56.1351 18.8545 56.4841 17.5573 56.7116 16.7457C56.9392 15.934 57.4171 14.4168 57.7585 13.37C58.1074 12.3307 58.5702 11.0108 58.7902 10.4494C59.0026 9.88809 59.3743 8.98538 59.6018 8.43921C59.8294 7.89303 60.3225 6.82343 60.7018 6.04968C61.0735 5.27593 61.5514 4.35804 61.7638 4.00151C61.9762 3.64498 62.3403 3.10639 62.5755 2.79537C62.8106 2.48435 63.2051 2.0292 63.4554 1.77887C63.7058 1.52854 64.1154 1.17959 64.3657 1.00512C64.6161 0.82306 65.0484 0.572728 65.3367 0.443769Z" fill="#DFDFDF"/>
<path d="M13.8059 20.9103C13.8817 20.8041 14.0638 20.6599 14.2003 20.5917C14.3369 20.5234 14.5645 20.4627 14.701 20.4627C14.83 20.4627 15.0727 20.5234 15.2244 20.5993C15.3761 20.6675 15.5658 20.8344 15.6417 20.9558C15.7175 21.0772 15.7782 21.3123 15.7782 21.4716C15.7782 21.6233 15.6265 22.3592 15.4444 23.1026C15.2548 23.8384 14.7086 26.1369 14.2307 28.2002C13.7528 30.2636 13.0701 33.2675 12.7135 34.8757C12.357 36.4839 11.7122 39.5182 11.2722 41.6271C10.8323 43.736 10.2026 46.8613 9.86886 48.5681C9.53508 50.2749 8.9889 53.1651 8.65513 54.9781C8.32135 56.7911 7.82828 59.5751 7.55519 61.1606C7.2821 62.746 6.83454 65.4617 6.56145 67.1913C6.28836 68.9208 6.04561 70.5214 6.01527 70.7338C5.97734 70.9538 5.96975 71.1359 5.99251 71.1359C6.01527 71.1359 6.27319 70.9462 6.56145 70.7111C6.85729 70.4759 7.92689 69.6263 8.95097 68.8298C9.97506 68.0257 11.697 66.7058 12.7818 65.8941C13.8666 65.0824 15.3837 63.9521 16.1575 63.3908C16.9312 62.8294 18.3801 61.7826 19.3815 61.0771C20.3828 60.364 22.1579 59.1351 23.3261 58.3386C24.4943 57.5421 26.4438 56.2525 27.65 55.4712C28.8637 54.6823 30.8208 53.4382 32.0118 52.7024C33.2028 51.9666 34.8944 50.9349 35.7668 50.4115C36.6467 49.888 38.0956 49.046 38.9907 48.5302C39.8859 48.0219 41.4941 47.1268 42.5561 46.5427C43.6181 45.9586 45.3932 45.0028 46.5007 44.4263C47.6082 43.8497 49.8081 42.7498 51.3935 41.9836C52.979 41.2099 54.9968 40.2617 55.8692 39.8672C56.7415 39.4651 58.198 38.8279 59.0931 38.4411C59.9883 38.0618 61.6116 37.3866 62.6964 36.9467C63.7812 36.5067 65.4045 35.8771 66.2996 35.5433C67.1948 35.2095 68.7195 34.6633 69.6753 34.3296C70.6311 34.0034 72.1711 33.4875 73.0889 33.1993C74.022 32.9034 74.8943 32.6759 75.0612 32.6759C75.2281 32.6759 75.4785 32.7441 75.615 32.8276C75.744 32.911 75.9108 33.0931 75.9791 33.2296C76.0701 33.3965 76.0929 33.5786 76.0626 33.8137C76.0322 34.0489 75.9488 34.2234 75.8046 34.3675C75.6909 34.4813 75.4557 34.6254 75.2888 34.6861C75.1219 34.7392 74.1358 35.0502 73.0889 35.3688C72.0497 35.695 70.2746 36.2791 69.1443 36.6736C68.014 37.068 66.4514 37.6446 65.6548 37.948C64.8583 38.2514 63.4929 38.7976 62.6205 39.1617C61.7482 39.5258 60.1551 40.2086 59.0931 40.6789C58.0311 41.1492 56.5443 41.8243 55.7933 42.1809C55.0423 42.5298 53.5251 43.2732 52.4176 43.827C51.3101 44.3808 49.535 45.291 48.473 45.86C47.411 46.4213 45.9621 47.2103 45.249 47.6047C44.536 47.9992 43.3602 48.6667 42.6319 49.084C41.9037 49.5012 40.6369 50.237 39.8252 50.7149C39.0135 51.1928 37.7012 51.9893 36.9047 52.4748C36.1157 52.9603 34.4544 53.9996 33.2255 54.7885C31.9966 55.5698 30.0016 56.8822 28.7878 57.6938C27.5817 58.5131 25.7384 59.7724 24.6915 60.5006C23.6523 61.2288 22.0592 62.3591 21.1641 63.0115C20.269 63.6639 18.767 64.7714 17.8264 65.4769C16.8857 66.1824 15.5886 67.1761 14.9438 67.6768C14.299 68.1774 13.0018 69.2015 12.0612 69.9525C11.1205 70.7035 9.53508 72.0007 8.53376 72.8351C7.53243 73.6771 6.28836 74.7316 5.76494 75.1867C5.24152 75.6419 4.74844 76.0591 4.665 76.1198C4.58155 76.1729 4.37674 76.2487 4.20985 76.2942C4.01262 76.3397 3.78504 76.3322 3.56506 76.2866C3.37541 76.2411 3.10991 76.1273 2.98095 76.0211C2.8444 75.9225 2.66234 75.7025 2.5789 75.5357C2.48787 75.3536 2.42719 75.0805 2.42719 74.8529C2.42719 74.6481 2.632 73.2372 2.87475 71.7276C3.12508 70.2104 3.53471 67.783 3.78504 66.3189C4.03537 64.8624 4.46777 62.4501 4.74085 60.9709C5.01394 59.4917 5.56771 56.6394 5.96217 54.6368C6.36422 52.6341 6.99384 49.5467 7.36554 47.7716C7.74483 45.9965 8.41997 42.8939 8.87512 40.8685C9.33027 38.8431 9.89161 36.3701 10.1268 35.3688C10.3619 34.3675 11.0143 31.6745 11.5757 29.376C12.1446 27.0851 12.8425 24.286 13.1383 23.1557C13.4342 22.0254 13.73 21.0165 13.8059 20.9103Z" fill="white"/>
<path d="M65.8445 2.19609C66.0721 2.06713 66.4514 1.90783 66.6789 1.84714C66.9368 1.77128 67.2858 1.74094 67.5892 1.75611C67.8699 1.77128 68.2113 1.84714 68.3857 1.93817C68.5526 2.02162 68.8029 2.21126 68.9395 2.36298C69.0685 2.51469 69.2202 2.7802 69.2657 2.95467C69.3188 3.1519 69.334 3.56912 69.3112 4.00151C69.2884 4.44149 69.1898 4.98767 69.0685 5.40488C68.9623 5.77659 68.6436 6.64896 68.3706 7.33926C68.0975 8.02957 67.483 9.41019 67.0051 10.4115C66.5196 11.4128 65.6852 13.1196 65.1466 14.2044C64.6004 15.2892 63.7963 16.8594 63.3639 17.6939C62.924 18.5283 62.1881 19.8938 61.7254 20.7282C61.2703 21.5626 60.6179 22.7233 60.2841 23.3074C59.9503 23.8915 59.3814 24.8776 59.0097 25.5073C58.345 26.6327 58.3421 26.6526 58.2298 27.4315L58.2283 27.4416C58.1601 27.8816 58.0766 28.7464 58.0311 29.376C57.9856 30.0815 57.9856 30.8173 58.0235 31.3104C58.0615 31.7504 58.1449 32.2359 58.2132 32.3876C58.2814 32.5469 58.3573 32.6759 58.3952 32.6759C58.4256 32.6759 58.6 32.5772 58.7897 32.4635C58.9793 32.3421 59.3814 32.0083 59.6924 31.72C60.0034 31.4318 60.5951 30.787 61.0123 30.2863C61.4371 29.7857 62.0592 29.0043 62.4005 28.5416C62.7419 28.0789 63.4019 27.1458 63.8722 26.4555C64.3425 25.7652 65.1769 24.5059 65.7231 23.6487C66.2769 22.7915 67.3237 21.1227 68.0444 19.9393C68.9774 18.4221 69.4402 17.7394 69.5995 17.6408C69.7436 17.5573 69.9788 17.5042 70.2291 17.5042C70.5477 17.5042 70.6691 17.5422 70.8663 17.7091C70.9952 17.8304 71.1545 18.0428 71.2076 18.187C71.2759 18.3463 71.2987 18.5435 71.2607 18.68C71.238 18.8014 70.6463 19.7952 69.956 20.8799C69.2657 21.9647 68.1885 23.6184 67.5665 24.559C66.9368 25.4997 66.1024 26.7286 65.7004 27.2899C65.3059 27.8513 64.6232 28.7919 64.1832 29.376C63.7432 29.9601 63.0529 30.8325 62.6509 31.3104C62.2488 31.7883 61.5964 32.4938 61.2096 32.8655C60.8151 33.2372 60.2765 33.6924 60.0034 33.8744C59.7303 34.0565 59.3283 34.2689 59.1159 34.3523C58.8959 34.4282 58.5545 34.4964 58.3573 34.4964C58.1525 34.4964 57.8642 34.4585 57.7125 34.4206C57.5532 34.3751 57.2649 34.2006 57.0753 34.0185C56.8857 33.8441 56.6505 33.5255 56.5443 33.3206C56.4457 33.1082 56.3091 32.6759 56.2485 32.3497C56.1878 32.0311 56.1347 31.4545 56.1347 31.0828C56.1347 30.6808 56.1043 30.4001 56.0588 30.4001C56.0209 30.4001 55.6643 30.8704 55.2699 31.4394C54.883 32.0159 54.261 32.8958 53.8817 33.3965C53.51 33.8972 52.8955 34.6633 52.5162 35.1033C52.1445 35.5433 51.5301 36.1881 51.1584 36.5446C50.7867 36.9011 50.2784 37.326 50.0281 37.4928C49.7778 37.6521 49.353 37.8873 49.0799 38.0087C48.8068 38.13 48.3516 38.2818 48.0558 38.3424C47.7068 38.4183 47.3655 38.4335 47.0696 38.4031C46.8193 38.3728 46.4324 38.259 46.2048 38.1528C45.9773 38.039 45.6814 37.8114 45.5373 37.6446C45.4008 37.4777 45.2187 37.2046 45.0063 36.7343L44.7484 37.1515C44.6118 37.3791 44.225 37.9783 43.8836 38.479C43.5498 38.9797 43.0188 39.7155 42.7002 40.1099C42.374 40.5044 41.8809 41.0582 41.6003 41.3313C41.312 41.6043 40.8872 41.9533 40.6596 42.105C40.4321 42.2567 40.0452 42.454 39.81 42.5374C39.5673 42.6208 39.2411 42.6891 39.0894 42.6891C38.9301 42.6891 38.6494 42.636 38.4597 42.5677C38.2701 42.5071 38.0274 42.3857 37.9136 42.3022C37.7922 42.2264 37.595 41.9685 37.246 41.3237L36.6998 42.0595C36.404 42.4691 35.9033 43.1291 35.5847 43.516C35.2661 43.9104 34.7351 44.5476 34.3938 44.9193C34.06 45.2986 33.5441 45.8524 33.2559 46.1407C32.9676 46.4365 32.4973 46.8689 32.2015 47.1041C31.9056 47.3392 31.4656 47.6502 31.2153 47.8019C30.965 47.9537 30.5553 48.1281 30.305 48.1964C29.994 48.2799 29.7133 48.3026 29.4326 48.2723C29.1671 48.2419 28.8637 48.1357 28.5982 47.9764C28.3099 47.8095 28.09 47.5971 27.87 47.2785C27.65 46.9599 27.521 46.6413 27.4148 46.2165C27.301 45.731 27.2707 45.329 27.2707 44.2063C27.2707 43.4325 27.2934 42.6588 27.3314 42.4767C27.3617 42.3022 27.3617 42.1581 27.3314 42.1581C27.2934 42.1581 26.9976 42.3174 26.6638 42.5222C26.33 42.7195 25.7915 42.9698 25.4729 43.0684C24.9267 43.2429 24.8812 43.2732 24.8508 43.4856C24.8281 43.607 24.6915 44.5325 24.5398 45.5338C24.3881 46.5351 24.1833 47.8019 24.0847 48.3405C23.986 48.8791 23.7812 49.706 23.6295 50.1611C23.4778 50.6163 23.1668 51.39 22.9392 51.8679C22.7116 52.3458 22.3247 53.0286 22.0896 53.3851C21.8544 53.7416 21.3917 54.303 21.0503 54.6368C20.7166 54.9705 20.2538 55.3498 20.0262 55.4864C19.7987 55.6229 19.389 55.7898 19.1159 55.8581C18.7872 55.939 18.4964 55.9617 18.2436 55.9263C18.0388 55.9036 17.6974 55.7974 17.485 55.6988C17.2498 55.5926 16.9388 55.3422 16.6657 55.0388C16.3623 54.705 16.1575 54.3864 15.9982 53.992C15.8692 53.681 15.6948 53.1651 15.6189 52.8541C15.543 52.5431 15.4444 51.9438 15.3989 51.5266C15.3382 50.9728 15.3382 50.5177 15.3913 49.8577C15.4368 49.357 15.5734 48.5529 15.6948 48.075C15.8161 47.5971 16.0589 46.8234 16.2409 46.3682C16.4154 45.9131 16.7719 45.1242 17.0299 44.6235C17.2802 44.1228 17.7808 43.2656 18.145 42.727C18.5015 42.1885 18.987 41.5057 19.2222 41.2099C19.4573 40.914 19.7304 40.6334 19.8366 40.5803C19.9428 40.5347 20.1173 40.5044 20.2386 40.5272C20.3524 40.5423 20.4966 40.6258 20.5648 40.694C20.6331 40.7699 20.709 40.8989 20.7393 40.9823C20.7697 41.0733 20.7166 41.2706 20.6104 41.4754C20.5117 41.665 20.2311 42.1429 19.9959 42.5374C19.7532 42.9319 19.3663 43.6373 19.1387 44.0925C18.9035 44.5476 18.5698 45.2835 18.3877 45.7234C18.2132 46.1634 17.9629 46.8765 17.8415 47.3165C17.7202 47.7564 17.5533 48.4923 17.485 48.9474C17.3864 49.5619 17.3636 50.0094 17.394 50.6542C17.4243 51.1473 17.5078 51.7921 17.5988 52.1334C17.6822 52.4672 17.8491 52.9375 17.9629 53.1879C18.0767 53.4306 18.2208 53.6809 18.2815 53.7416C18.3498 53.8099 18.4712 53.8402 18.5849 53.8099C18.6911 53.7871 18.9187 53.6658 19.1008 53.5444C19.2753 53.4154 19.6014 53.0893 19.8214 52.8237C20.0338 52.5582 20.3904 52.0197 20.6104 51.6328C20.8228 51.2383 21.1186 50.6315 21.2627 50.2749C21.4069 49.9184 21.5965 49.3722 21.68 49.0612C21.771 48.7502 22.0137 47.5516 22.2185 46.4062C22.4309 45.2607 22.6433 44.0242 22.7951 43.0077L22.4613 42.636C22.2716 42.4388 22.0517 42.1202 21.9682 41.9305C21.8924 41.7409 21.8089 41.354 21.7862 41.0582C21.771 40.7623 21.7937 40.3906 21.8317 40.2237C21.8772 40.0568 21.991 39.7989 22.0896 39.6548C22.1882 39.5107 22.4158 39.3134 22.6054 39.2148C22.7951 39.1238 23.0302 39.0479 23.1364 39.0479C23.2426 39.0479 23.4778 39.1238 23.6674 39.2148C23.8571 39.3134 24.1074 39.5258 24.2364 39.6927C24.3653 39.8596 24.5474 40.2541 24.646 40.5651C24.7522 40.8761 24.8432 41.1416 24.8584 41.1492C24.866 41.1644 25.0405 41.0885 25.2453 40.9899C25.4425 40.8913 25.8066 40.6561 26.057 40.4665C26.3073 40.2844 26.7169 39.9127 26.9597 39.6472C27.21 39.3817 27.7562 38.699 28.1658 38.1376C28.583 37.5763 29.1671 36.7874 29.463 36.3929C29.7588 35.9984 30.3429 35.3309 30.7602 34.9061C31.1774 34.4889 31.7236 34.0034 31.9739 33.8365C32.2242 33.6696 32.7173 33.3813 33.0738 33.1993C33.491 32.9945 33.8552 32.8655 34.0979 32.8427C34.3558 32.82 34.5606 32.8503 34.7275 32.9338C34.8565 33.002 35.0385 33.1689 35.122 33.2979C35.2054 33.4344 35.2737 33.6696 35.2737 33.8137C35.2737 33.9579 35.2054 34.193 35.122 34.322C35.0385 34.4585 34.7199 34.7392 34.4241 34.944C34.1207 35.1412 33.5972 35.5585 33.2711 35.8695C32.9449 36.1805 32.429 36.757 32.1332 37.1515C31.8373 37.5459 31.4353 38.1756 31.2381 38.5549C31.0484 38.9341 30.7829 39.5107 30.6615 39.8444C30.5402 40.1782 30.3657 40.7927 30.2823 41.2099C30.1912 41.6271 30.085 42.2719 30.0395 42.6512C30.0016 43.0305 29.9636 43.8042 29.9636 44.3732C29.9636 44.9497 29.9864 45.4352 30.0243 45.4579C30.0547 45.4731 30.214 45.3972 30.3809 45.291C30.5478 45.1848 30.9726 44.8511 31.3291 44.5552C31.6856 44.2594 32.5049 43.4856 33.1497 42.8408C33.7945 42.196 34.6517 41.2706 35.0537 40.7927C35.4558 40.3148 36.0399 39.5638 36.3509 39.1238C36.6543 38.6838 37.0791 37.9859 37.2915 37.5687C37.5039 37.1515 37.8301 36.4688 38.0046 36.0515C38.1867 35.6343 38.4446 35.0199 38.5887 34.6861C38.7328 34.3523 39.0363 33.753 39.2563 33.3586C39.4838 32.9641 39.8252 32.4103 40.03 32.1373C40.2272 31.8566 40.5838 31.3787 40.8189 31.0752C41.0541 30.7642 41.5092 30.2256 41.843 29.8767C42.1692 29.5277 42.6774 29.0878 42.9733 28.8905C43.2691 28.6933 43.6939 28.4657 43.9215 28.3899C44.1794 28.2988 44.5436 28.2457 44.8697 28.2457C45.249 28.2533 45.507 28.2988 46.1214 28.5795L46.44 27.7603C46.6221 27.3051 46.8648 26.8424 46.9938 26.6982C47.1151 26.5617 47.3427 26.41 47.4868 26.3645C47.631 26.3189 47.9117 26.2962 48.1013 26.3114C48.3365 26.3341 48.5337 26.41 48.7385 26.5693C48.8978 26.6907 49.0799 26.9106 49.133 27.0396C49.1861 27.1761 49.2316 27.4113 49.2316 27.5554C49.2316 27.6996 49.095 28.1699 48.9206 28.5947C48.7537 29.0271 48.4427 29.8691 48.2303 30.476C48.0254 31.0828 47.7372 32.0538 47.5931 32.6379C47.4489 33.222 47.2972 34.0565 47.2441 34.4964C47.1834 35.0275 47.1834 35.4371 47.2289 35.7102C47.2896 36.0743 47.32 36.1274 47.4868 36.1502C47.593 36.1653 47.8661 36.1046 48.0937 36.0212C48.3213 35.9377 48.6778 35.7557 48.8902 35.6191C49.095 35.4826 49.6033 35.0426 50.0205 34.6482C50.4301 34.2537 51.128 33.5027 51.568 32.9793C52.0004 32.4559 52.7438 31.5228 53.2065 30.8932C53.6769 30.2712 54.4658 29.156 54.9664 28.4278C55.4671 27.6996 56.0133 26.8803 56.1953 26.6072C56.4988 26.1369 56.5291 26.0383 56.787 24.6728C56.9312 23.8839 57.2043 22.5488 57.3863 21.7144C57.576 20.8799 57.9097 19.4993 58.1373 18.6421C58.3649 17.7849 58.7745 16.374 59.0476 15.494C59.3207 14.6141 59.7076 13.4231 59.92 12.839C60.1248 12.2549 60.4813 11.2991 60.7089 10.7149C60.9365 10.1308 61.3006 9.2433 61.5206 8.74264C61.7406 8.24198 62.2185 7.21789 62.5902 6.4669C62.9543 5.7159 63.4701 4.77526 63.7356 4.3808C63.9936 3.98634 64.479 3.38706 64.8204 3.0457C65.1542 2.71192 65.6169 2.33263 65.8445 2.19609Z" fill="white"/>
<path d="M43.4663 31.5915C43.7318 31.3715 44.1945 31.0681 44.4904 30.9163C44.7786 30.757 45.0593 30.6281 45.0972 30.6281C45.1427 30.6281 45.1579 30.7039 45.1427 30.795C45.1276 30.8936 44.8393 31.546 44.5055 32.259C44.1718 32.9721 43.6711 33.9734 43.3904 34.4968C43.1173 35.0203 42.6698 35.8016 42.4043 36.2416C42.1464 36.6815 41.7064 37.3643 41.4257 37.7587C41.1526 38.1532 40.6747 38.7828 40.3561 39.1545C40.0451 39.5262 39.7265 39.86 39.6582 39.8903C39.5444 39.9434 39.5217 39.9207 39.5217 39.769C39.5217 39.6628 39.5899 39.2304 39.681 38.798C39.7644 38.3732 40.0072 37.5084 40.212 36.8864C40.4244 36.2567 40.7733 35.3692 41.0009 34.9141C41.2285 34.4513 41.5774 33.8369 41.7747 33.5334C41.9719 33.23 42.3284 32.7597 42.556 32.4866C42.7836 32.2135 43.1932 31.8115 43.4663 31.5915Z" fill="#DFDFDF"/>
<path d="M65.2755 5.82249C65.541 5.46596 66.0113 4.92737 66.3299 4.62394V4.63152C66.6485 4.32809 66.9368 4.07776 66.9823 4.07776C67.0202 4.07776 67.0354 4.22947 67.0126 4.44188C66.9899 4.63911 66.8837 5.13977 66.7775 5.55699C66.6788 5.97421 66.4437 6.76313 66.2692 7.30173C66.0871 7.8479 65.6851 8.94026 65.3665 9.72918C65.0555 10.5181 64.5321 11.7318 64.2135 12.4221C63.8873 13.1125 63.2501 14.3869 62.7949 15.2668C62.3322 16.1468 61.7481 17.2315 61.4977 17.6943C61.2597 18.1342 60.7749 18.9993 60.3952 19.6767L60.3371 19.7804C59.9502 20.4707 59.5785 21.1003 59.5178 21.1837C59.4496 21.2672 59.4041 21.3051 59.3965 21.2596C59.3965 21.2141 59.5861 20.4707 59.8061 19.5907C60.0337 18.7108 60.4433 17.2619 60.7088 16.3668C60.9819 15.4716 61.3915 14.2048 61.6191 13.56C61.8467 12.9152 62.1729 12.0277 62.3398 11.5877C62.5066 11.1477 62.8177 10.3967 63.0225 9.91883C63.2273 9.44092 63.5687 8.69751 63.7886 8.27271C64.001 7.84032 64.3197 7.2638 64.4865 6.98312C64.661 6.69486 65.0175 6.17903 65.2755 5.82249Z" fill="#DFDFDF"/>
</svg>
