<svg width="85" height="80" viewBox="0 0 85 80" fill="none" xmlns="http://www.w3.org/2000/svg">
<path fill-rule="evenodd" clip-rule="evenodd" d="M38.341 20.6304C33.7199 21.8599 29.8705 22.9028 29.7772 22.9452C29.65 23.0046 28.6834 25.3617 25.809 32.6368C23.7231 37.9277 21.9934 42.3284 21.968 42.4216C21.934 42.5403 22.1799 42.9558 22.8328 43.8631L23.7316 45.1349C26.1227 58.9134 26.394 60.3464 26.5297 60.482C26.6823 60.6432 27.1148 60.6686 36.2467 61.1095L45.8026 61.5674C60.3357 57.6924 62.7947 57.0056 62.871 56.8954C62.9303 56.8191 62.9727 56.7089 62.9727 56.6665C62.9699 56.6522 62.9013 56.2572 62.7843 55.5833C62.5548 54.2609 62.1388 51.8642 61.667 49.1625C60.3866 41.8111 60.3781 41.7433 60.5477 41.65C60.6664 41.5822 60.8784 41.1667 61.1752 40.4206C61.4465 39.7507 61.6161 39.1911 61.5991 39.0554C61.5822 38.9113 58.8265 34.9601 54.4089 28.7534C50.4661 23.2165 47.1762 18.6124 47.0914 18.5361C47.0151 18.4513 46.8964 18.3835 46.8371 18.392C46.7862 18.392 42.9537 19.401 38.341 20.6304ZM38.133 21.6567C33.8681 22.7929 30.3577 23.7511 30.3323 23.7765C30.3069 23.8019 28.6958 27.8549 26.7541 32.7897C24.8124 37.7161 23.2268 41.7521 23.2353 41.7606C23.2438 41.7691 26.7626 40.8449 31.053 39.7087C35.3434 38.564 38.8792 37.6059 38.9046 37.5719C38.9301 37.5296 40.5241 33.5189 42.4489 28.6435C44.3736 23.768 45.9592 19.732 45.9762 19.6726C45.9847 19.6218 45.9762 19.5709 45.9423 19.5794C45.9168 19.5794 42.398 20.5121 38.133 21.6567ZM43.4494 28.618C41.5586 33.4172 39.9984 37.3939 39.9815 37.4617C39.9645 37.5635 40.1002 37.5974 40.7616 37.6143L41.5671 37.6398C41.6603 36.7495 41.7536 36.2577 41.8214 35.9779C41.8978 35.6981 42.0589 35.2232 42.1776 34.918C42.2963 34.6127 42.5422 34.1379 42.7202 33.8581C42.8898 33.5783 43.2629 33.1374 43.5342 32.883C43.8055 32.6286 44.238 32.3149 44.4923 32.1877C44.7467 32.069 45.2046 31.9164 45.5098 31.8571C45.9253 31.7807 46.1966 31.7807 46.6121 31.8486C46.9174 31.9079 47.4261 32.0775 47.7568 32.2386C48.1044 32.4082 48.5793 32.7389 48.9015 33.0441C49.4017 33.5189 49.4611 33.5529 49.5459 33.4172C49.6052 33.3324 49.7578 33.1289 49.885 32.9593C50.0207 32.7982 50.2666 32.5439 50.4277 32.3997C50.5888 32.264 50.8771 32.0521 51.0636 31.9334C51.2502 31.8147 51.6317 31.6536 51.9115 31.5688C52.2846 31.4585 52.5983 31.4331 53.0986 31.4585C53.4971 31.484 53.9719 31.5772 54.2433 31.6875C54.4977 31.7807 54.947 32.0436 55.2438 32.264C55.5321 32.493 55.99 32.9339 56.2528 33.2646C56.5072 33.5953 56.8548 34.121 57.0244 34.4516C57.1855 34.7823 57.4144 35.308 57.5247 35.6387C57.6349 35.9694 57.779 36.5545 57.8469 36.953C57.9232 37.3515 57.9741 37.8518 57.9741 38.0807V38.4792C59.6529 38.5555 60.1447 38.5555 60.1617 38.5301C60.1701 38.5046 57.2279 34.299 53.6158 29.1946C50.0122 24.0902 47.0191 19.91 46.9767 19.91C46.9258 19.91 45.3403 23.8274 43.4494 28.6265V28.618ZM50.894 33.2476C51.2417 32.9 51.5554 32.6795 51.8691 32.5523C52.2422 32.3997 52.4627 32.3658 53.0138 32.3912C53.5565 32.4167 53.7854 32.4675 54.1585 32.6626C54.4129 32.7982 54.8114 33.078 55.0403 33.29C55.2692 33.502 55.5914 33.892 55.7695 34.1464C55.9391 34.4008 56.1595 34.7654 56.2528 34.9519C56.3461 35.1385 56.4987 35.52 56.6005 35.7998C56.6937 36.0796 56.8379 36.6308 56.9142 37.0293C56.999 37.4278 57.1177 37.8094 57.177 37.8772C57.2873 37.9874 57.2788 38.0213 57.177 38.1316C57.0838 38.2248 57.0414 38.4538 57.0414 38.954C57.0414 39.3441 56.982 39.9546 56.9057 40.3107C56.8294 40.6753 56.6513 41.2603 56.5072 41.608C56.363 41.9556 56.0832 42.4559 55.8967 42.7103C55.7017 42.9646 55.3964 43.2868 55.2099 43.431C55.0318 43.5666 54.6672 43.7701 54.4129 43.8719C54.1585 43.9736 53.7769 44.0669 53.565 44.0669C53.353 44.0669 52.9969 44.016 52.7594 43.9482C52.5305 43.8804 52.1066 43.6684 51.8267 43.4903C51.5469 43.3038 51.1569 42.9562 50.9619 42.7187C50.7584 42.4813 50.6142 42.2269 50.6397 42.1591C50.6736 42.0574 50.7838 42.1082 51.1315 42.3711C51.3689 42.5492 51.7843 42.7696 52.0387 42.8459C52.3609 42.9477 52.6407 42.9731 52.929 42.9307C53.1664 42.9053 53.5056 42.8035 53.6921 42.7103C53.8787 42.6255 54.2178 42.3626 54.4383 42.1422C54.6672 41.9217 54.9725 41.4893 55.1251 41.184C55.2777 40.8788 55.4727 40.3276 55.7017 39.2762L55.1421 38.7251C54.8368 38.4199 54.5824 38.1485 54.5824 38.1061C54.5824 38.0722 54.7859 37.767 55.4982 36.8173L55.3456 36.3934C55.2692 36.1559 55.0912 35.7574 54.964 35.5031C54.8283 35.2317 54.4722 34.7823 54.1246 34.4432C53.6667 33.9938 53.4123 33.8072 53.0562 33.6885C52.7255 33.5783 52.4372 33.5359 52.0811 33.5613C51.7759 33.5868 51.4113 33.6801 51.1569 33.8072C50.9364 33.9259 50.6142 34.1718 50.4531 34.3584C50.2157 34.6297 50.1394 34.6721 50.0801 34.5704C50.0377 34.4856 50.0801 34.3245 50.1988 34.104C50.3005 33.9175 50.6142 33.5359 50.894 33.2476ZM45.4166 32.8152C45.2046 32.8661 44.823 33.0526 44.5687 33.2307C44.3143 33.4002 43.9666 33.7224 43.7886 33.9514C43.6105 34.1718 43.3307 34.6382 43.1696 34.9689C43.0085 35.308 42.9068 35.6133 42.9322 35.6472C42.9661 35.6896 43.0085 35.6557 43.0339 35.5878C43.0679 35.52 43.229 35.2741 43.3986 35.0537C43.5681 34.8332 43.8734 34.528 44.0769 34.3753C44.2804 34.2312 44.6195 34.0616 44.8315 34.0023C45.0435 33.9429 45.3318 33.892 45.4674 33.892C45.6031 33.892 45.9168 33.9599 46.1458 34.0447C46.3832 34.121 46.7732 34.3414 47.0191 34.528C47.265 34.7145 47.6296 35.0961 47.8246 35.3759C48.0196 35.6557 48.2825 36.1305 48.4097 36.4357C48.5369 36.741 48.6471 37.0462 48.6471 37.1141C48.6471 37.1819 48.4436 37.5295 48.1892 37.8772L47.7229 38.5131L48.876 39.7002C48.698 40.6244 48.5199 41.1501 48.3588 41.4808C48.2062 41.8115 47.9264 42.2439 47.7398 42.4559C47.5533 42.6679 47.1802 42.9477 46.9004 43.0833C46.5104 43.2784 46.2899 43.3377 45.8914 43.3292C45.5183 43.3292 45.247 43.2699 44.8739 43.1003C44.5517 42.9477 44.1871 42.6848 43.8734 42.3626C43.5003 41.9726 43.407 41.9132 43.4833 42.0913C43.5342 42.227 43.6784 42.4813 43.814 42.6679C43.9412 42.8544 44.2719 43.219 44.5432 43.4734C44.823 43.7277 45.2131 44.0245 45.425 44.1263C45.637 44.2365 46.0101 44.3552 46.2475 44.4061C46.5612 44.4654 46.8326 44.4654 47.1378 44.4061C47.3837 44.3552 47.7737 44.2111 48.0027 44.0839C48.2316 43.9567 48.6047 43.643 48.8421 43.3886C49.071 43.1342 49.4017 42.617 49.5798 42.2439C49.7579 41.8708 49.9613 41.3197 50.0377 41.0144C50.114 40.7092 50.1988 40.0817 50.2242 39.6154C50.2496 39.149 50.309 38.6657 50.3514 38.5301C50.4023 38.3859 50.3938 38.2587 50.3429 38.1909C50.3005 38.14 50.1903 37.75 50.097 37.3261C50.0122 36.9021 49.8342 36.3001 49.7155 35.9694C49.5883 35.6387 49.3169 35.113 49.1219 34.7823C48.9184 34.4516 48.5114 33.9599 48.2147 33.6885C47.9179 33.4087 47.4685 33.095 47.2226 32.9848C46.9852 32.8745 46.5612 32.7728 46.2899 32.7474C46.0271 32.7219 45.6285 32.7558 45.4166 32.8152ZM42.6354 47.1618C41.8808 42.7781 41.2364 39.1067 41.2109 38.9964C41.1686 38.8353 41.194 38.8099 41.3975 38.8099C41.6338 38.8099 41.6349 38.8267 41.6683 39.3284L41.6688 39.3356C41.6858 39.6324 41.779 40.1581 41.8638 40.5057C41.9571 40.8533 42.1436 41.4299 42.2878 41.7776C42.4319 42.1252 42.7541 42.7187 43 43.0918C43.2459 43.4649 43.6784 43.9736 43.9497 44.2195C44.2295 44.4654 44.7128 44.8046 45.0435 44.9572C45.3742 45.1268 45.8744 45.2879 46.1882 45.3303C46.5528 45.3896 46.9174 45.3812 47.248 45.3303C47.5279 45.2794 47.9264 45.1692 48.1383 45.0759C48.3503 44.9826 48.7234 44.7452 48.9778 44.5502C49.2237 44.3552 49.5883 43.9821 50.1309 43.2444L50.7245 43.7871C51.0551 44.0923 51.5469 44.4485 51.8267 44.5841C52.1066 44.7198 52.5814 44.8809 52.8866 44.9318C53.3106 45.0081 53.5734 45.0081 54.0313 44.9318C54.362 44.8809 54.8368 44.7283 55.0912 44.6011C55.3625 44.4739 55.8034 44.1263 56.1511 43.7786C56.5665 43.3631 56.8633 42.9646 57.1007 42.4983C57.2957 42.1252 57.5501 41.4808 57.6688 41.0568C57.779 40.6329 57.8978 40.1496 57.9741 39.6578H58.5252C58.8305 39.6578 59.0763 39.6663 59.0763 39.6748C59.0763 39.6832 59.2365 40.6038 59.4937 42.0827L59.4937 42.0829L59.4951 42.0913L59.4961 42.0967C59.7547 43.5837 60.1108 45.6314 60.5008 47.8825C61.8829 55.8189 61.9253 56.0648 61.7557 56.0902C61.654 56.1072 57.6434 55.9206 52.8442 55.6832C48.0451 55.4458 44.0854 55.2254 44.0599 55.1914C44.0345 55.1575 43.3901 51.5454 42.6354 47.1618ZM30.6464 43.4294C27.2304 44.3397 24.6852 45.0179 24.6852 45.025C24.6768 45.0335 25.2364 48.3064 25.9317 52.2916C26.627 56.2768 27.2035 59.5497 27.2205 59.5582C27.229 59.5666 30.7478 58.6424 35.0382 57.5062C39.3286 56.3616 42.8983 55.4034 42.9746 55.3695C43.0933 55.3102 42.9661 54.4792 41.8638 48.1369C41.177 44.1941 40.6005 40.9297 40.575 40.8788C40.5496 40.8279 37.6497 41.5571 32.6132 42.9053L30.6464 43.4294Z" fill="#DFDFDF"/>
<path fill-rule="evenodd" clip-rule="evenodd" d="M31.1374 24.0307C30.7135 24.1494 30.3235 24.2936 30.2641 24.3445C30.2047 24.4038 30.1539 24.5395 30.1539 24.6582C30.1623 24.7769 30.4676 26.6593 30.8492 28.8553C31.2222 31.0514 31.5784 32.9507 31.6292 33.0779C31.6886 33.2051 31.7988 33.3323 31.8836 33.3577C31.9599 33.3747 32.4178 33.2899 32.9011 33.1712C33.3759 33.044 33.8083 32.9083 33.8592 32.849C33.9101 32.7981 34.3425 31.7637 34.8174 30.5511C35.2922 29.3386 35.6737 28.2533 35.6737 28.1346C35.6737 28.0159 35.5211 27.0832 35.3431 26.0572C35.0463 24.4038 34.9869 24.1749 34.8174 24.0392C34.6732 23.9375 34.4697 23.8866 34.1475 23.8951C33.8931 23.8951 33.2826 23.8781 32.7909 23.8612C32.0193 23.8272 31.7988 23.8442 31.1374 24.0307ZM55.8709 48.832C55.7946 48.9338 55.4384 49.239 55.0908 49.5188C54.7432 49.7986 54.2259 50.1378 53.9461 50.2735C53.6663 50.4006 53.1321 50.5872 52.7591 50.6889C52.3068 50.802 51.8122 50.8585 51.2752 50.8585C50.7382 50.8585 50.2436 50.802 49.7914 50.6889C49.4183 50.5872 48.8841 50.4006 48.6043 50.265C48.3245 50.1293 47.8666 49.8495 47.5868 49.6375C47.307 49.4255 47.0103 49.2475 46.9339 49.2475C46.8576 49.2475 46.7304 49.3068 46.6626 49.3747C46.5863 49.4425 46.5269 49.6206 46.5269 49.7562C46.5269 49.9682 46.6117 50.07 47.0611 50.4006C47.3494 50.6211 47.8921 50.9433 48.2652 51.1214C48.6382 51.2994 49.2657 51.5199 49.6642 51.6131C50.139 51.7319 50.6732 51.7912 51.2159 51.7912C51.6653 51.7912 52.3351 51.7319 52.6997 51.6555C53.0558 51.5792 53.6409 51.4012 53.9885 51.257C54.3362 51.1129 54.8873 50.8161 55.218 50.5957C55.5487 50.3752 56.015 49.9852 56.2609 49.7223C56.4983 49.4595 56.7018 49.1797 56.7018 49.0949C56.7103 49.0186 56.6425 48.8829 56.5577 48.8066C56.4729 48.7218 56.3203 48.654 56.21 48.654C56.1083 48.654 55.9557 48.7387 55.8709 48.832ZM32.7145 24.9805C32.7399 25.1077 32.9689 26.405 33.2233 27.8634C33.4861 29.3981 33.715 30.5004 33.7659 30.4834C33.8083 30.4665 34.0542 29.9408 34.3001 29.3133L34.758 28.1771C34.334 25.6843 34.1899 24.9297 34.156 24.9042C34.1305 24.8703 33.7829 24.8279 33.3844 24.8025L32.6636 24.7601L32.7145 24.9805Z" fill="#DFDFDF"/>
<path fill-rule="evenodd" clip-rule="evenodd" d="M41.5508 0.169581C41.2032 0.262851 40.686 0.45787 40.4146 0.610493C40.1348 0.763116 39.677 1.11076 39.3972 1.39057C39.1004 1.68733 38.7443 2.16216 38.5662 2.49285C38.3966 2.82353 38.1931 3.31532 38.1253 3.59512C38.049 3.87493 37.9896 4.40064 37.9896 4.76524C37.9896 5.12136 38.032 5.62162 38.0829 5.86751C38.1338 6.10493 38.3034 6.57976 38.456 6.90196C38.6171 7.23264 38.9478 7.72443 39.1937 7.99576C39.4396 8.27557 39.872 8.64865 40.1518 8.82671C40.4316 9.01325 40.9573 9.25066 41.3219 9.36089C41.8052 9.52199 42.1613 9.57287 42.7125 9.57287C43.1279 9.57287 43.6876 9.51351 43.9674 9.4372C44.2472 9.36937 44.739 9.16587 45.0697 8.99629C45.4427 8.80127 45.8667 8.47907 46.2059 8.13142C46.545 7.7753 46.8418 7.36831 47.0283 6.98675C47.1894 6.66455 47.376 6.12189 47.4438 5.79968C47.5116 5.47748 47.571 5.01961 47.571 4.78219C47.571 4.55326 47.5201 4.11235 47.4523 3.8071C47.3929 3.50185 47.2149 2.98463 47.0622 2.66243C46.8587 2.22152 46.6128 1.89931 46.138 1.43296C45.7084 1.00336 45.3099 0.69811 44.9425 0.517223C44.6372 0.373079 44.1285 0.195019 43.7978 0.118707C43.4671 0.0508744 42.9753 0 42.6955 0C42.4157 0 41.8985 0.0763116 41.5508 0.169581ZM52.7856 1.37361C52.7602 1.42448 52.0734 3.40011 51.2594 5.75729C50.4454 8.11447 49.801 10.0647 49.8349 10.0901C49.8773 10.1155 50.3352 10.2936 50.8609 10.4716C51.6833 10.7515 51.8275 10.7854 51.8953 10.6751C51.9377 10.6073 52.1327 10.0731 52.3277 9.48808C52.5228 8.90302 52.7093 8.40275 52.7347 8.36884C52.7602 8.32644 52.9806 8.36036 53.2096 8.43667C53.447 8.51298 53.6759 8.62321 53.7268 8.67409C53.7861 8.72496 53.9557 9.42872 54.1083 10.2258L54.3966 11.6926C56.1348 12.3201 56.6605 12.4812 56.686 12.4557C56.7114 12.4303 56.5927 11.6842 56.4231 10.8023L56.3103 10.1856C56.1999 9.58311 56.1158 9.12393 56.1094 9.0726C56.1009 9.00477 56.2281 8.91998 56.4316 8.85215C56.6181 8.80127 56.9234 8.67409 57.1099 8.58082C57.2965 8.47907 57.6272 8.20774 57.8561 7.97032C58.0765 7.73291 58.3564 7.31743 58.492 7.0461C58.6955 6.62215 58.721 6.46105 58.721 5.71489C58.721 4.93482 58.6955 4.81611 58.4496 4.31585C58.28 3.95972 58.0257 3.61208 57.7289 3.34075C57.4745 3.10334 57.1015 2.83201 56.8895 2.73026C56.686 2.62851 55.6854 2.25543 54.668 1.90779C53.3622 1.44992 52.811 1.2973 52.7856 1.37361ZM26.5683 3.16269C26.5768 3.14573 27.3484 2.88288 28.2811 2.57764C29.96 2.0265 29.9854 2.0265 30.8248 2.04346C31.5625 2.06889 31.7236 2.10281 32.0543 2.28935C32.2663 2.41653 32.58 2.67939 32.758 2.88288C32.9276 3.08638 33.1311 3.42554 33.199 3.63752C33.2753 3.8495 33.3261 4.18866 33.3261 4.40064C33.3261 4.61261 33.2668 4.95178 33.199 5.16375C33.1311 5.37573 33.0718 5.56227 33.0718 5.58771C33.0718 5.61314 33.2074 5.68097 33.3855 5.74033C33.5636 5.79968 33.9027 5.9947 34.1317 6.16428C34.4199 6.38474 34.6319 6.63911 34.81 6.98675C35.0304 7.4107 35.0644 7.58029 35.0644 8.12295C35.0644 8.64865 35.022 8.85215 34.8354 9.2337C34.7167 9.48808 34.4369 9.86115 34.2249 10.0562C34.013 10.2597 33.6144 10.531 33.3516 10.6667C33.0803 10.8023 32.0797 11.1585 31.1216 11.4722C30.1635 11.7774 29.3834 12.0233 29.3749 12.0064C29.3749 12.0034 29.2975 11.7633 29.1643 11.3498C28.913 10.5699 28.4631 9.17349 27.9589 7.58877C27.1788 5.17223 26.5514 3.17965 26.5683 3.16269ZM20.9043 5.97774C20.4804 6.28299 20.0988 6.5628 20.0564 6.60519C20.0055 6.65607 20.3532 7.21569 21.0145 8.14838C21.5911 8.95389 22.0405 9.64918 22.0236 9.70005C21.9981 9.75093 21.3537 10.2342 20.5736 10.7769C19.802 11.328 19.1407 11.7605 19.1067 11.7435C19.0644 11.7265 18.581 11.0567 18.0214 10.2597C17.4618 9.46264 16.987 8.80975 16.9615 8.80975C16.9361 8.80975 16.5376 9.08108 16.0712 9.41176C15.6049 9.74245 15.2233 10.0562 15.2318 10.107C15.2318 10.1664 16.4104 11.8707 17.8434 13.8972C19.2763 15.9237 20.4888 17.5941 20.5312 17.6025C20.5736 17.6195 20.9891 17.3651 21.4555 17.0344C21.9218 16.7038 22.3034 16.4155 22.3034 16.3731C22.3034 16.3392 21.854 15.6863 21.3198 14.9147C20.7771 14.1431 20.3701 13.4902 20.4125 13.4648C20.4464 13.4393 21.0909 12.9815 21.837 12.4557C22.5832 11.93 23.2361 11.4891 23.2785 11.4722C23.3208 11.4552 23.8042 12.0657 24.3383 12.8373C24.9149 13.6598 25.3558 14.2109 25.4237 14.194C25.4745 14.1685 25.89 13.8972 26.3309 13.575C26.7803 13.2613 27.1449 12.9899 27.1449 12.9645C27.1449 12.9391 25.9578 11.2432 24.5079 9.19131C23.058 7.13937 21.8285 5.45204 21.7692 5.44356C21.7098 5.43508 21.3283 5.6725 20.9043 5.97774ZM58.8651 13.6004L61.6632 9.89507C63.4184 7.56333 64.4952 6.20668 64.5546 6.24059C64.6139 6.27451 65.0124 6.57128 65.4449 6.89348C65.8773 7.22417 66.2334 7.51245 66.2249 7.53789C66.2249 7.5624 65.7604 8.17743 65.1879 8.93532L65.1874 8.93603L65.187 8.93648L65.1861 8.93776L65.186 8.93784L65.1227 9.02173C64.5206 9.81028 64.0543 10.4886 64.0882 10.514C64.1221 10.548 64.775 11.0482 66.9456 12.7016L68.0734 11.2178C68.811 10.2512 69.2265 9.75941 69.3028 9.8018C69.3537 9.83572 69.7268 10.107 70.1253 10.4123C70.4501 10.6541 70.7467 10.8791 70.8637 10.9678L70.9138 11.0058C70.9562 11.0313 69.7353 12.7186 68.209 14.7451C66.6913 16.7716 65.394 18.4335 65.3431 18.425C65.2922 18.425 64.8768 18.1452 63.5964 17.204L63.7575 16.9666C63.8508 16.8394 64.3171 16.2035 65.6992 14.3635L64.2408 13.2782C63.4438 12.6847 62.7739 12.2014 62.7485 12.2014C62.7231 12.2014 62.2482 12.8203 61.6886 13.5665C61.0612 14.4059 60.6287 14.9062 60.5694 14.8808C60.51 14.8553 60.103 14.5501 58.8651 13.6004ZM11.73 15.2708C11.4586 15.3047 11.1025 15.381 10.9414 15.4319C10.7803 15.4828 10.4157 15.6439 10.1444 15.7965C9.84761 15.9491 9.42365 16.2968 9.10993 16.6275C8.73685 17.026 8.46552 17.4245 8.23658 17.8993C8.05005 18.2893 7.86351 18.832 7.81263 19.1118C7.76176 19.3916 7.71936 19.8241 7.71936 20.0615C7.71936 20.3074 7.76176 20.7144 7.81263 20.9518C7.86351 21.1977 8.04157 21.6895 8.20267 22.0371C8.4316 22.5119 8.66902 22.8341 9.15232 23.3174C9.63563 23.8007 9.95784 24.0382 10.4327 24.2586C10.7803 24.4282 11.2806 24.6147 11.5349 24.6741C11.7893 24.7334 12.3235 24.7758 12.722 24.7758C13.1884 24.7674 13.6378 24.6995 13.9939 24.5893C14.2991 24.496 14.7739 24.2756 15.0538 24.089C15.3336 23.911 15.749 23.5548 15.9865 23.3005C16.2154 23.0461 16.5546 22.5713 16.7241 22.2491C16.8937 21.9184 17.0972 21.4096 17.165 21.1044C17.2414 20.7992 17.3007 20.3752 17.3007 20.1463C17.3007 19.9258 17.2583 19.5443 17.2074 19.2984C17.1566 19.0609 16.987 18.5946 16.8344 18.2639C16.6733 17.9332 16.3595 17.4414 16.1306 17.1616C15.9017 16.8818 15.4862 16.4663 15.2149 16.2459C14.935 16.0254 14.6892 15.8389 14.6468 15.8474C14.6128 15.8474 13.9091 16.7801 13.0781 17.9332C12.2557 19.0779 11.5689 20.0445 11.5519 20.0954C11.5434 20.1378 11.8656 20.4091 12.2726 20.7059C12.4313 20.8192 12.5826 20.9276 12.7118 21.0202C12.9208 21.17 13.0721 21.2785 13.1036 21.2994C13.1544 21.3333 13.5699 20.8331 14.0278 20.1887L14.8672 19.027C15.0877 19.4425 15.1385 19.7562 15.1385 20.1293C15.1301 20.5448 15.0792 20.8415 14.9605 21.1044C14.8672 21.3164 14.6383 21.6555 14.4433 21.8675C14.2398 22.0964 13.9176 22.3339 13.6462 22.4526C13.2732 22.6137 13.0781 22.6476 12.6372 22.6137C12.2896 22.5967 11.9165 22.5034 11.6197 22.3678C11.3654 22.2491 10.9668 21.9862 10.7464 21.7827C10.5175 21.5623 10.2376 21.1977 10.1189 20.9348C9.95784 20.6041 9.89848 20.3243 9.89 19.9597C9.89 19.6545 9.94936 19.2729 10.0511 18.9931C10.1444 18.7387 10.3733 18.3657 10.5598 18.1537C10.7464 17.9417 11.0432 17.7043 11.2127 17.6195C11.3908 17.5262 11.7215 17.4245 11.9589 17.3736L12.3828 17.2888C12.3998 15.6608 12.3659 15.2538 12.315 15.2369C12.2641 15.2199 12.0098 15.2369 11.73 15.2708ZM71.8635 16.8309C72.0924 16.7546 72.474 16.6529 72.7114 16.6105C72.9404 16.5681 73.3813 16.5596 73.6865 16.5766C73.9918 16.602 74.4496 16.6783 74.704 16.7546C74.9584 16.8225 75.3993 17.0005 75.6791 17.1362C75.9928 17.2973 76.4168 17.6365 76.7814 18.0011C77.1121 18.3317 77.5021 18.832 77.6462 19.1118C77.7989 19.3916 77.9854 19.8665 78.0617 20.1717C78.1465 20.4939 78.2058 21.0196 78.1974 21.4436C78.1974 21.9353 78.138 22.3508 78.0108 22.7578C77.9091 23.0885 77.6971 23.5633 77.5445 23.8177C77.3834 24.0721 77.0527 24.4875 76.8068 24.7334C76.5609 24.9878 76.1454 25.3185 75.8911 25.4711C75.6367 25.6237 75.1873 25.8357 74.8905 25.929C74.6022 26.0307 74.085 26.1325 73.7459 26.1579C73.3389 26.1918 72.9319 26.1664 72.4994 26.0731C72.1518 25.9968 71.5752 25.8018 71.2276 25.6237C70.7867 25.4118 70.4221 25.1404 70.0405 24.7589C69.7353 24.4536 69.3707 23.9703 69.218 23.6905C69.0654 23.4107 68.8704 22.8765 68.7686 22.5034C68.6754 22.1304 68.5991 21.6131 68.5991 21.3588C68.5991 21.1044 68.6754 20.5872 68.7686 20.2141C68.8704 19.841 69.0654 19.3068 69.218 19.0355C69.3707 18.7557 69.7013 18.3148 69.9557 18.0604C70.2101 17.7976 70.651 17.4414 70.9308 17.2719C71.2106 17.1023 71.6261 16.8988 71.8635 16.8309ZM3.62397 26.4632C3.40352 27.0397 3.23394 27.5146 3.24241 27.5146C3.24972 27.5182 3.60969 27.6604 4.2036 27.895C4.98798 28.2049 6.1804 28.6759 7.50739 29.2019C9.83913 30.1176 11.7808 30.8723 11.8232 30.8808C11.8741 30.8892 12.0861 30.4398 12.315 29.8802C12.5355 29.3206 12.7051 28.8543 12.6966 28.8458C12.6881 28.8373 10.7464 28.0657 8.37225 27.133C6.00659 26.1918 4.06488 25.4287 4.04793 25.4287C4.03945 25.4287 3.84443 25.8951 3.62397 26.4632ZM76.8238 28.8712C77.0357 28.7864 77.4343 28.6677 77.7141 28.5999C78.0193 28.5321 78.4772 28.4981 78.8587 28.5236C79.2064 28.549 79.7066 28.6253 79.961 28.7016C80.2154 28.778 80.6563 28.956 80.9361 29.1002C81.2159 29.2528 81.6992 29.6174 82.0045 29.9226C82.386 30.3042 82.6574 30.6688 82.8693 31.1097C83.0474 31.4573 83.2424 32.0339 83.3187 32.3816C83.412 32.8055 83.4374 33.2295 83.412 33.6534C83.3866 34.0011 83.2763 34.5352 83.1661 34.8405C83.0559 35.1457 82.8693 35.5612 82.7421 35.7732C82.6234 35.9852 82.3521 36.3413 82.1571 36.5702C81.9536 36.7991 81.5551 37.1298 81.2753 37.3079C80.9955 37.4944 80.4613 37.7403 80.0882 37.859C79.5795 38.0201 79.2149 38.0795 78.6468 38.0795C78.155 38.088 77.7056 38.0371 77.3749 37.9438C77.0951 37.859 76.6033 37.6555 76.2811 37.486C75.8995 37.2825 75.5095 36.9772 75.1534 36.5957C74.8651 36.2819 74.509 35.7986 74.3648 35.5188C74.2207 35.239 74.0511 34.7896 73.9833 34.5183C73.9154 34.2554 73.8561 33.6873 73.8561 33.2719C73.8561 32.8225 73.907 32.3222 73.9918 32.0424C74.0681 31.788 74.2546 31.3302 74.4157 31.0249C74.5683 30.7197 74.899 30.2703 75.1449 30.0159C75.3908 29.7615 75.7808 29.4308 76.0182 29.2867C76.2472 29.1426 76.6118 28.9475 76.8238 28.8712ZM1.78401 31.8728C1.78401 31.9152 1.57204 33.1277 1.31767 34.5607C1.06329 36.0021 0.868275 37.1722 0.876754 37.1807C0.885233 37.1892 2.89477 37.5453 5.34522 37.9693C7.79567 38.4017 9.85609 38.7578 9.92392 38.7663C10.0257 38.7833 10.1444 38.2321 10.5259 36.1123C10.7888 34.6455 10.9838 33.416 10.9499 33.3906C10.9244 33.3651 10.5344 33.2803 10.0935 33.204C9.65259 33.1277 9.21168 33.0599 9.11841 33.0599C8.96579 33.0599 8.92339 33.204 8.66902 34.6031C8.50791 35.4595 8.36377 36.1717 8.34681 36.1971C8.32138 36.2226 7.99917 36.1802 7.61761 36.1123C7.24453 36.0445 6.92233 35.9682 6.90537 35.9428C6.89689 35.9173 6.9732 35.3662 7.09191 34.7133C7.21062 34.0604 7.28693 33.4838 7.26997 33.4414C7.24453 33.3906 6.79514 33.2888 6.26944 33.1955C5.64199 33.1023 5.28587 33.0684 5.26043 33.1277C5.23499 33.1701 5.12477 33.7382 5.01454 34.3826C4.93615 34.8469 4.86205 35.2512 4.82579 35.449L4.82575 35.4492L4.82574 35.4493C4.81104 35.5295 4.80256 35.5757 4.80256 35.5782C4.79408 35.5866 4.47188 35.5442 4.07336 35.4679C3.67485 35.4001 3.34416 35.3323 3.33568 35.3238C3.32821 35.3163 3.42605 34.7626 3.55381 34.0395L3.55381 34.0394L3.60701 33.7382C3.75964 32.8733 3.86139 32.1441 3.83595 32.1187C3.80203 32.0933 3.39504 32.0085 2.92869 31.9237C2.46234 31.8474 2.01295 31.788 1.92816 31.788C1.85185 31.788 1.78401 31.8219 1.78401 31.8728ZM0.486717 42.1325C0.503675 42.107 2.4793 41.8781 4.86192 41.6153C7.25301 41.3524 9.33886 41.132 9.79673 41.115L9.94936 43.3619L9.70346 43.5654C9.5678 43.6842 8.4316 44.6932 7.1767 45.8124C5.56568 47.2538 4.94671 47.8643 5.05693 47.8728C5.14173 47.8898 6.36271 47.7711 7.76176 47.6184C9.1608 47.4573 10.3224 47.3386 10.3479 47.3556C10.3733 47.3641 10.4496 47.8474 10.5175 48.4324C10.5853 49.0175 10.6277 49.5178 10.6022 49.5347C10.5768 49.5517 8.49944 49.7891 5.98115 50.0519C3.46287 50.3233 1.3855 50.5098 1.36006 50.4844C1.33462 50.4505 1.27527 49.9587 1.21592 49.3906C1.15656 48.814 1.14808 48.3307 1.19048 48.2798C1.2244 48.2374 2.36907 47.203 3.72572 45.9905C5.08237 44.778 6.14226 43.7774 6.09138 43.7605C6.03203 43.752 4.79408 43.8707 3.35264 44.0318L2.64341 44.1066C1.53463 44.2236 0.714217 44.3102 0.707173 44.3031C0.698694 44.3031 0.630861 43.8198 0.563029 43.2348C0.495196 42.6497 0.46128 42.1579 0.486717 42.1325ZM75.1703 41.6407C75.1534 41.7509 75.0516 42.6582 74.9584 43.6587C74.8142 45.1256 74.7973 45.5919 74.8651 46.0498C74.916 46.372 75.0262 46.7875 75.1025 46.9825C75.1788 47.186 75.3654 47.5336 75.5095 47.7711C75.6536 48 75.908 48.3307 76.0691 48.4918C76.2302 48.6529 76.527 48.9073 76.739 49.0599C76.951 49.204 77.2901 49.399 77.5021 49.4923C77.7141 49.5856 78.1804 49.7212 78.5365 49.7976C78.9011 49.8739 79.359 49.9332 79.554 49.9332C79.7575 49.9332 80.1815 49.8739 80.5122 49.806C80.8344 49.7382 81.3685 49.5517 81.6992 49.3906C82.0893 49.204 82.4793 48.9157 82.8354 48.5681C83.2 48.195 83.4629 47.8389 83.6494 47.4319C83.802 47.1012 83.9716 46.6433 84.0225 46.4144C84.0734 46.177 84.1921 45.1849 84.2853 44.2099C84.3871 43.2348 84.438 42.4123 84.4041 42.3869C84.3786 42.3614 82.403 42.1494 80.0204 41.9035C77.6293 41.6577 75.5773 41.4626 75.4501 41.4542C75.2721 41.4542 75.2043 41.505 75.1703 41.6407ZM68.226 66.23C68.3023 66.1198 68.4464 66.0011 68.5482 65.9587C68.6415 65.9163 68.8365 65.8993 68.9806 65.9163C69.1163 65.9417 69.3198 66.0519 69.4215 66.1706C69.5487 66.3063 69.6166 66.4928 69.6166 66.6794C69.6166 66.8998 69.5487 67.044 69.3367 67.2475C69.0993 67.4764 69.023 67.5103 68.7686 67.4595C68.6075 67.434 68.3871 67.3068 68.2769 67.1881C68.1666 67.0609 68.0903 66.8659 68.0903 66.6963C68.0903 66.5522 68.1497 66.3402 68.226 66.23ZM15.9017 66.5098C15.766 66.6455 15.6953 66.815 15.6897 67.0185C15.6897 67.239 15.7575 67.3831 15.9441 67.5697C16.1136 67.7393 16.2832 67.8241 16.4613 67.8241C16.6393 67.8241 16.8004 67.7393 16.97 67.5697C17.1481 67.3831 17.2159 67.2305 17.2159 67.0185C17.2159 66.815 17.1481 66.6539 17.0039 66.5098C16.8513 66.3572 16.6987 66.2978 16.4528 66.2978C16.1984 66.2978 16.0543 66.3487 15.9017 66.5098ZM62.2822 68.9009C62.3246 68.8755 62.5365 68.8161 62.7316 68.7737C62.935 68.7398 63.2657 68.7398 63.4523 68.7822C63.6473 68.8161 63.8932 68.9094 63.9949 68.9772C64.1052 69.045 64.2832 69.2231 64.4019 69.3672C64.5122 69.5199 64.6393 69.8166 64.6817 70.0286C64.7157 70.2406 64.7241 70.5458 64.6902 70.7069C64.6563 70.868 64.6393 71.0207 64.6563 71.0461C64.6648 71.0715 65.0039 71.2411 65.4109 71.4277C65.8179 71.6142 66.1486 71.7838 66.1401 71.8092C66.1401 71.8347 65.9536 71.9958 65.7162 72.1653C65.4873 72.3434 65.2498 72.4875 65.2074 72.4875C65.1566 72.4875 64.8259 72.3519 64.4613 72.1908C63.8593 71.9194 63.7914 71.9025 63.6134 72.0212C63.5116 72.089 63.4268 72.1908 63.4268 72.2332C63.4268 72.2756 63.5795 72.5299 63.766 72.7843C63.9525 73.0387 64.1052 73.2676 64.1052 73.2931C64.1052 73.3185 63.9101 73.4796 63.6727 73.6492C63.4099 73.8527 63.2233 73.9375 63.1809 73.8866C63.1538 73.8594 62.8964 73.5009 62.5297 72.9901C62.3245 72.7044 62.0852 72.371 61.8328 72.0212C61.129 71.0461 60.5524 70.2151 60.544 70.1728C60.544 70.1388 60.917 69.8505 61.3664 69.5368C61.8243 69.2146 62.2313 68.9348 62.2822 68.9009ZM22.2186 69.4605C22.0066 69.5114 21.6674 69.664 21.4724 69.7912C21.2774 69.9269 20.9976 70.1897 20.8534 70.3847C20.7178 70.5882 20.5397 70.9613 20.4634 71.2157C20.3871 71.487 20.3532 71.8347 20.3786 72.0636C20.404 72.2756 20.5143 72.6317 20.633 72.8691C20.7517 73.098 20.9552 73.3948 21.0909 73.5135C21.218 73.6407 21.4809 73.8188 21.6674 73.912C21.854 74.0053 22.1592 74.107 22.3458 74.141C22.6764 74.2003 22.6934 74.1918 22.9986 73.7848C23.1682 73.5644 23.2869 73.3524 23.27 73.31C23.253 73.2761 23.1089 73.2507 22.9562 73.2507C22.8121 73.2507 22.5323 73.1743 22.3458 73.098C22.1592 73.0132 21.9218 72.8267 21.8116 72.691C21.7013 72.5554 21.5742 72.3095 21.5233 72.1484C21.4555 71.9279 21.4639 71.7668 21.5487 71.5125C21.6081 71.3259 21.7777 71.0461 21.9133 70.8935C22.0659 70.7324 22.3118 70.5798 22.4899 70.5289C22.6934 70.478 22.9393 70.4865 23.1513 70.5374C23.3378 70.5798 23.6091 70.7239 23.7533 70.8511C23.9059 70.9867 24.0924 71.2326 24.1772 71.4022C24.2705 71.5803 24.3553 71.7244 24.3807 71.7244C24.4062 71.7244 24.5418 71.5464 24.686 71.3174C24.8556 71.0631 24.9319 70.8596 24.9064 70.7493C24.881 70.6561 24.7114 70.4102 24.5334 70.2067C24.3553 70.0117 24.0161 69.7488 23.7872 69.6386C23.5498 69.5284 23.1937 69.4181 22.9817 69.3927C22.7697 69.3757 22.4305 69.4012 22.2186 69.4605ZM56.9149 72.0975C56.9319 72.089 57.1693 71.9703 57.4491 71.8262C57.7289 71.682 57.9833 71.5718 58.0172 71.5803C58.0426 71.5888 58.8481 72.3349 59.7978 73.2422C60.739 74.1494 61.5275 74.921 61.536 74.9634C61.553 74.9973 61.3664 75.1245 61.1375 75.2432C60.9001 75.3619 60.6627 75.4552 60.6033 75.4552C60.5524 75.4552 60.3659 75.3195 59.908 74.8532L58.4072 75.5824L58.509 76.5575L58.0002 76.8119C57.6356 76.9899 57.483 77.0323 57.4576 76.956C57.4406 76.9051 57.305 75.7859 57.1523 74.4801C57.0082 73.1743 56.898 72.0975 56.9149 72.0975ZM25.9154 73.6237C24.9488 74.5564 24.1603 75.345 24.1603 75.3704C24.1603 75.3959 24.3977 75.523 24.6775 75.6672L25.1862 75.9216L25.8561 75.2432L27.306 75.964V76.9391C28.1539 77.3291 28.3235 77.3715 28.3235 77.2952C28.3235 77.2443 28.4168 76.2607 28.5355 75.1161C28.6457 73.9714 28.7474 72.903 28.7474 72.7419C28.7474 72.4536 28.7135 72.4282 28.2048 72.1738L27.6621 71.911L25.9154 73.6237ZM36.4888 74.141C36.4804 74.124 36.6075 73.8951 36.7771 73.6407C36.9467 73.3778 37.1332 73.1743 37.2011 73.1743C37.2604 73.1743 37.5148 73.2083 38.2016 73.3524L37.7353 73.8188C37.2774 74.2766 37.2689 74.2851 36.8874 74.2342C36.6839 74.2088 36.4973 74.1664 36.4888 74.141ZM30.757 75.7605C30.4009 76.9475 30.1295 77.9565 30.1465 78.0074C30.1719 78.0498 30.3754 78.1261 30.5959 78.177C30.8163 78.2279 31.0368 78.2703 31.0792 78.2703C31.1301 78.2703 31.2827 77.9057 31.4184 77.4648L31.6727 76.6592C32.6648 76.9814 32.97 77.0747 32.987 77.0747C33.0124 77.0747 33.1057 76.8543 33.182 76.5829C33.2668 76.3201 33.3261 76.0911 33.3092 76.0827C33.3007 76.0742 33.0039 75.9724 32.6478 75.8622C32.1306 75.7011 32.0204 75.6333 32.0288 75.4976C32.0373 75.4043 32.0882 75.2263 32.1391 75.0991L32.2239 74.8702C33.3092 75.2093 33.6568 75.3111 33.6992 75.3195C33.7416 75.328 33.8518 75.1161 33.9366 74.8447C34.0553 74.4716 34.0723 74.3529 33.9875 74.319C33.9799 74.3168 33.9642 74.312 33.9414 74.3049L33.8044 74.2617C33.5814 74.1913 33.1859 74.0664 32.758 73.9375C32.1391 73.7509 31.5879 73.5983 31.5201 73.5983C31.4523 73.5983 31.1809 74.3614 30.757 75.7605ZM52.2345 73.9544C52.6839 73.8103 53.1163 73.6746 53.2096 73.6492C53.3028 73.6322 53.5148 73.6322 53.6759 73.6577C53.8455 73.6831 54.0914 73.7679 54.227 73.8527C54.3712 73.929 54.5493 74.141 54.634 74.3021C54.7188 74.4716 54.7782 74.726 54.7782 74.8702C54.7782 75.0058 54.7443 75.1924 54.7019 75.2687C54.6425 75.3874 54.6934 75.4552 54.9817 75.6078C55.1767 75.7096 55.4056 75.9216 55.4904 76.0742C55.5837 76.2268 55.6515 76.5066 55.6515 76.6932C55.6515 76.8797 55.5922 77.151 55.5159 77.3037C55.4396 77.4563 55.253 77.6767 55.1004 77.787C54.9478 77.9057 54.3797 78.1516 52.828 78.6857L52.1073 76.4727C51.7088 75.2517 51.395 74.2427 51.412 74.2342C51.4191 74.2201 51.6803 74.135 52.023 74.0234L52.0237 74.0232L52.2345 73.9544ZM35.3102 74.8617C35.2933 74.9804 35.1322 75.947 34.9456 77.0069C34.7591 78.0668 34.598 79.0164 34.598 79.1097C34.598 79.203 34.6319 79.2793 34.6658 79.2793C34.6998 79.2793 35.2594 79.3725 35.9123 79.4912C36.1113 79.5248 36.3032 79.5577 36.475 79.587C36.867 79.6541 37.1546 79.7032 37.1841 79.7032C37.235 79.7032 37.3113 79.4743 37.3537 79.1945C37.4385 78.6942 37.4385 78.6857 37.2265 78.6433C37.1163 78.6179 36.7602 78.5501 36.438 78.4907L35.8529 78.389C35.9292 77.8633 35.9631 77.6937 35.9801 77.6852C35.9886 77.6767 36.2769 77.7106 36.6075 77.77C36.9467 77.8294 37.2435 77.8548 37.2604 77.8378C37.2774 77.8124 37.3283 77.5835 37.3622 77.3291L37.4215 76.8627C36.5143 76.6847 36.226 76.6169 36.1921 76.5999C36.1582 76.5829 36.1666 76.4218 36.209 76.2438C36.2599 76.0742 36.3108 75.9216 36.3193 75.9046C36.3277 75.8961 36.6839 75.947 37.0993 76.0148C37.5233 76.0827 37.8709 76.1335 37.8879 76.1166C37.8949 76.1096 37.925 75.9581 37.9639 75.7623L37.9896 75.6333C38.0405 75.3704 38.0659 75.1584 38.0575 75.1415C38.049 75.133 37.43 75.0143 36.6923 74.8871L35.3442 74.6412L35.3102 74.8617ZM43.0516 75.735C43.2043 75.5909 43.4586 75.4298 43.6028 75.3874C43.7554 75.345 44.0861 75.3026 44.3235 75.3026C44.6118 75.2941 44.8916 75.3535 45.112 75.4637C45.2986 75.557 45.5275 75.7605 45.6123 75.9046C45.7056 76.0572 45.7989 76.2862 45.8243 76.4134C45.8752 76.6423 45.8667 76.6508 45.3834 76.7016C44.9425 76.7525 44.8831 76.7355 44.6627 76.5321C44.5355 76.4134 44.3659 76.3116 44.2811 76.3116C44.2048 76.3116 44.0606 76.3625 43.9674 76.4303C43.8232 76.5321 43.8148 76.5914 43.8826 76.761C43.925 76.8797 44.3065 77.2613 44.7305 77.6089C45.146 77.9565 45.519 78.2279 45.553 78.2109C45.5954 78.194 45.6208 78.0837 45.6208 77.965C45.6208 77.8124 45.5784 77.753 45.4512 77.753C45.324 77.753 45.2816 77.6937 45.2816 77.5156C45.2816 77.3037 45.3155 77.2782 45.6801 77.2189C45.9091 77.1849 46.2313 77.1595 46.4009 77.1595C46.5566 77.1595 46.6371 77.1595 46.6786 77.1997C46.7231 77.2427 46.7231 77.3316 46.7231 77.5156C46.7231 77.7191 46.6722 78.0668 46.6044 78.3042C46.545 78.5331 46.4687 78.7875 46.4348 78.8553C46.3924 78.9401 46.5111 79.0927 46.8418 79.3641C47.0962 79.576 47.2827 79.7711 47.2573 79.805C47.2233 79.8474 46.9351 79.8728 46.6044 79.8728C46.2313 79.8728 45.96 79.8389 45.9006 79.7711C45.8158 79.6778 45.7225 79.6947 45.4343 79.8304C45.1544 79.9661 44.9001 80 44.2557 80C43.5519 80 43.3908 79.9746 43.1873 79.8219C43.0601 79.7287 42.8651 79.5167 42.7549 79.3556C42.6362 79.1775 42.5598 78.9401 42.5683 78.7451C42.5683 78.5755 42.6362 78.2872 42.7294 78.1092C42.8142 77.9396 42.9499 77.7361 43.0262 77.6683C43.1449 77.558 43.1534 77.5241 43.0432 77.4139C42.9753 77.346 42.8566 77.1426 42.7888 76.9645C42.6955 76.7525 42.6701 76.549 42.7125 76.3286C42.7464 76.142 42.8821 75.9046 43.0516 75.735ZM41.4665 2.47592C41.7208 2.3233 42.0261 2.18764 42.1448 2.17068C42.2635 2.15372 42.5263 2.12828 42.7383 2.1198C42.9503 2.1198 43.3319 2.17068 43.5862 2.24699C43.9508 2.34874 44.1543 2.4844 44.5274 2.85748C44.8666 3.20512 45.0446 3.47645 45.1549 3.80714C45.2481 4.08695 45.3075 4.49394 45.3075 4.82463C45.299 5.17227 45.2227 5.56231 45.104 5.88451C44.9768 6.22367 44.7818 6.52044 44.5274 6.77481C44.2674 7.03484 43.9819 7.21572 43.671 7.31747C43.3234 7.43618 43.0436 7.4701 42.5687 7.43618C42.0854 7.41074 41.8395 7.35139 41.5513 7.18181C41.3393 7.0631 41.0425 6.81721 40.8814 6.63915C40.7203 6.45261 40.5168 6.15584 40.432 5.9693C40.3557 5.78276 40.254 5.38424 40.2285 5.079C40.1861 4.68896 40.2116 4.39219 40.3048 4.06151C40.3811 3.80714 40.5677 3.40862 40.7203 3.17121C40.9068 2.8914 41.1612 2.65398 41.4665 2.47592ZM53.8289 5.18923C54.0324 4.59569 54.2105 4.07847 54.2359 4.04455C54.2529 4.01064 54.6005 4.10391 55.0075 4.23957C55.423 4.38371 55.8724 4.57025 56.0081 4.65504C56.1437 4.73984 56.3303 4.94333 56.4151 5.11291C56.4914 5.2825 56.5592 5.51143 56.5592 5.63014C56.5592 5.74884 56.5083 5.9693 56.4405 6.11344C56.3811 6.26607 56.22 6.48652 56.0929 6.60523C55.9318 6.74937 55.7452 6.82569 55.4739 6.84264C55.1941 6.86808 54.8803 6.80025 54.4394 6.64763C54.229 6.57062 54.0123 6.49051 53.8533 6.43175L53.8529 6.43158C53.7495 6.39337 53.6707 6.36422 53.6339 6.35086C53.4728 6.28303 53.4728 6.24911 53.8289 5.18923ZM29.7738 4.29044C29.5195 4.36676 29.316 4.46851 29.3244 4.51938C29.3329 4.57025 29.4177 4.85006 29.511 5.13835C29.6042 5.43512 29.706 5.67253 29.7484 5.67253C29.7823 5.67253 30.0536 5.58774 30.3504 5.48599C30.6811 5.36729 30.9609 5.20618 31.0542 5.079C31.139 4.96029 31.2153 4.80767 31.2153 4.73984C31.2153 4.672 31.139 4.5109 31.0372 4.37524C30.9015 4.19718 30.7998 4.1463 30.5539 4.15478C30.3758 4.15478 30.0282 4.22261 29.7738 4.29044ZM30.4098 7.85165C30.3674 7.73295 30.4691 7.66511 30.9779 7.49553C31.4103 7.35139 31.7155 7.30051 32.0123 7.32595C32.2752 7.34291 32.4956 7.41074 32.5889 7.51249C32.6652 7.59728 32.7585 7.80078 32.7839 7.96188C32.8348 8.21625 32.8009 8.30104 32.555 8.58085C32.326 8.83523 32.1225 8.94545 31.5883 9.11504C31.2153 9.23374 30.8846 9.30157 30.8591 9.25918C30.8252 9.22526 30.7235 8.92002 30.6302 8.59781C30.5553 8.36052 30.4849 8.11403 30.4429 7.96672L30.4428 7.96644L30.4428 7.96621L30.4427 7.96614L30.4426 7.96568L30.4424 7.96482C30.4276 7.91305 30.4164 7.87373 30.4098 7.85165ZM72.3984 19.0188C72.568 18.934 72.8224 18.8408 72.9665 18.8068C73.1106 18.7644 73.4583 18.756 73.7551 18.7729C74.0688 18.7984 74.4419 18.8916 74.6878 19.0188C74.9082 19.129 75.2474 19.4004 75.4509 19.6293C75.6459 19.8582 75.8663 20.2144 75.9342 20.4263C76.0105 20.6383 76.0614 21.0199 76.0614 21.2742C76.0614 21.5286 75.9935 21.9271 75.9172 22.1645C75.824 22.4274 75.6035 22.7666 75.3406 23.0379C75.1032 23.3007 74.7132 23.589 74.4503 23.7162C74.0603 23.9028 73.8653 23.9451 73.2633 23.9451C72.6189 23.9451 72.4917 23.9197 72.0847 23.6908C71.8303 23.5551 71.5166 23.3007 71.3809 23.1396C71.2537 22.9785 71.0587 22.6733 70.957 22.4613C70.8298 22.19 70.7704 21.9102 70.7704 21.4862C70.7704 21.0538 70.8213 20.774 70.957 20.4687C71.0587 20.2144 71.33 19.8667 71.6099 19.5954C71.8642 19.358 72.2204 19.0951 72.3984 19.0188ZM76.799 31.4576C77.0195 31.2541 77.4011 31.0167 77.63 30.9234C77.9692 30.7962 78.215 30.7708 78.8171 30.7878C79.3852 30.8047 79.665 30.8641 79.9193 30.9913C80.1059 31.093 80.3857 31.2965 80.5468 31.4576C80.6994 31.6102 80.9284 31.924 81.0386 32.1614C81.1573 32.3903 81.276 32.7973 81.3014 33.0517C81.3269 33.3569 81.2929 33.6876 81.1912 34.0268C81.0725 34.4338 80.9538 34.6288 80.5638 35.0103C80.2331 35.341 79.9363 35.536 79.6056 35.6632C79.2665 35.7904 78.9273 35.8498 78.5033 35.8498C78.0031 35.8498 77.7911 35.8074 77.3756 35.6123C77.0449 35.4512 76.7567 35.2393 76.5616 34.9934C76.3921 34.7899 76.1886 34.4507 76.1122 34.2387C76.0275 34.0268 75.9596 33.6113 75.9511 33.306C75.9427 32.8736 75.9851 32.6531 76.1631 32.2886C76.2903 32.0172 76.5532 31.6696 76.799 31.4576ZM77.0187 44.4207C77.01 44.6175 76.999 44.8674 76.9856 45.1174C76.9517 45.9229 76.9686 46.0162 77.1721 46.4062C77.2993 46.6521 77.5452 46.9489 77.7657 47.11C77.9692 47.2711 78.3338 47.4491 78.5627 47.517C78.8001 47.5848 79.2834 47.6441 79.648 47.6357C80.1313 47.6357 80.4111 47.5848 80.7418 47.4406C80.9792 47.3389 81.2929 47.1184 81.4456 46.9573C81.5897 46.7962 81.7763 46.491 81.8526 46.279C81.9289 46.067 82.0306 45.5752 82.073 45.1767C82.1154 44.7782 82.1324 44.4306 82.0985 44.4051C82.0645 44.3712 80.9199 44.2356 79.5463 44.0999L77.0449 43.854L77.0365 44.0575C77.0325 44.109 77.0267 44.2403 77.019 44.414L77.0188 44.419L77.0187 44.4207ZM62.232 70.2069L62.2999 70.163L62.3 70.1629L62.3007 70.1625C62.4195 70.0854 62.5792 69.9817 62.6984 69.9186C62.8425 69.8339 63.0206 69.766 63.0884 69.766C63.1647 69.7745 63.2834 69.8169 63.3597 69.8763C63.436 69.9356 63.5378 70.0713 63.5802 70.19C63.6226 70.3087 63.6395 70.4783 63.6056 70.5715C63.5717 70.6648 63.3852 70.8683 63.1901 71.0209C62.9951 71.1736 62.8086 71.2923 62.7747 71.3007C62.7407 71.3007 62.5542 71.0888 62.0285 70.3596L62.232 70.2069ZM58.1451 73.2848C58.1112 73.3103 58.1197 73.5307 58.1621 73.7766C58.2044 74.014 58.2468 74.2854 58.2553 74.3702C58.2553 74.5058 58.2892 74.4973 58.6454 74.3278C58.8489 74.2175 59.0269 74.1158 59.0269 74.0904C59.0269 74.0649 58.8404 73.8699 58.6199 73.641C58.391 73.4205 58.179 73.2594 58.1451 73.2848ZM26.6284 74.4719L27.0693 74.031C27.3067 73.7851 27.5272 73.5986 27.5526 73.624C27.5696 73.641 27.5611 73.9208 27.4594 74.8111L26.6284 74.4719ZM52.9813 74.7772C52.7524 74.8535 52.7524 74.862 52.8542 75.1587C52.9474 75.4385 52.9813 75.4555 53.2103 75.4131C53.3544 75.3792 53.5155 75.3113 53.5749 75.252C53.6342 75.2011 53.6851 75.0654 53.6851 74.9637C53.6851 74.8535 53.6258 74.7517 53.5494 74.7263C53.4816 74.7008 53.3799 74.6839 53.3205 74.6924C53.2612 74.6924 53.1085 74.7348 52.9813 74.7772ZM53.3799 76.6595C53.3459 76.5069 53.3883 76.4475 53.5749 76.3882C53.7021 76.3458 53.9225 76.3034 54.0582 76.2949C54.2023 76.2949 54.3719 76.3458 54.4397 76.4221C54.533 76.5238 54.55 76.6171 54.4821 76.7867C54.4228 76.9478 54.2871 77.058 53.5918 77.3124L53.507 77.0835C53.4562 76.9563 53.3968 76.7613 53.3799 76.6595ZM43.7222 78.2027C43.6968 78.2705 43.6713 78.3977 43.6713 78.4825C43.6713 78.5588 43.7392 78.6945 43.824 78.7793C43.9003 78.8556 44.1207 78.9489 44.3073 78.9828C44.5277 79.0167 44.6719 78.9997 44.7143 78.9404C44.7482 78.881 44.621 78.7114 44.3751 78.5164C44.1546 78.3384 43.9257 78.1688 43.8748 78.1349C43.824 78.101 43.7561 78.1349 43.7222 78.2027Z" fill="#DFDFDF"/>
</svg>
