<svg width="152" height="24" viewBox="0 0 152 24" fill="none" xmlns="http://www.w3.org/2000/svg">
<path d="M101.716 19.7181L103.212 19.6693C104.025 19.6449 107.871 19.6286 118.807 19.6368L119.336 20.1653V21.5394C119.336 22.7997 119.319 22.9298 119.173 23.0925C119.084 23.1982 118.889 23.3283 118.742 23.3852C118.531 23.4827 116.994 23.499 101.813 23.499L101.244 22.9298V20.2466L101.716 19.7181Z" fill="#DFDFDF"/>
<path d="M101.586 10.3104C101.691 10.2535 102.122 10.1803 102.545 10.1559C102.968 10.1315 106.757 10.1071 110.961 10.099C116.888 10.0909 118.645 10.1071 118.799 10.1884C118.905 10.2372 119.075 10.3917 119.165 10.5137C119.319 10.7251 119.336 10.8552 119.336 12.026C119.336 13.0993 119.311 13.3351 119.189 13.5221C119.116 13.6441 118.921 13.7986 118.766 13.8637C118.523 13.9694 117.376 13.9856 110.188 13.9856C102.862 13.9856 101.87 13.9694 101.675 13.8637C101.545 13.7905 101.39 13.6522 101.325 13.5547C101.236 13.4246 101.195 13.0749 101.179 12.2374C101.155 11.3512 101.179 11.0259 101.277 10.7576C101.35 10.5625 101.488 10.3592 101.586 10.3104Z" fill="#DFDFDF"/>
<path d="M0.874329 1.08175L1.05321 0.911C1.22396 0.740248 1.29714 0.732117 2.83391 0.732117C3.93973 0.740248 4.50077 0.764641 4.61461 0.83782C4.71218 0.894737 7.25719 4.24473 10.2657 8.28585C13.2823 12.327 15.8517 15.7095 16.2095 15.9778L16.3721 15.7745C16.5347 15.5713 16.5428 15.5306 16.5103 8.4566C16.4778 1.91112 16.4859 1.32568 16.616 1.13867C16.6892 1.02483 16.8437 0.886606 16.9575 0.83782C17.1039 0.764641 17.6405 0.732117 20.2587 0.732117L20.8035 1.26063L20.8523 4.02519C20.8848 5.54569 20.9092 10.5056 20.9092 15.0427C20.9092 22.7428 20.8929 23.3039 20.7629 23.4421C20.6409 23.5722 20.4539 23.5885 19.0391 23.5803C17.9495 23.5803 17.3885 23.5478 17.2584 23.4746C17.1527 23.4258 14.5833 20.1978 11.5504 16.3031C7.90768 11.6114 5.97249 9.1884 5.818 9.12335C5.61472 9.02578 5.56594 9.02578 5.46023 9.13961C5.35453 9.26158 5.33827 10.156 5.33827 23.0925L4.80975 23.621L3.28112 23.6535C2.01267 23.6698 1.71996 23.6535 1.49229 23.5478C1.35406 23.4746 1.18331 23.3201 1.11826 23.1901C1.02069 23.003 0.988163 21.263 0.874329 1.08175Z" fill="#DFDFDF"/>
<path d="M68.1342 0.919001C68.2399 0.772642 68.4432 0.618153 68.5814 0.577497C68.7359 0.536842 72.1998 0.496187 76.7938 0.496187C83.7052 0.488056 84.7703 0.504318 84.9817 0.610022C85.12 0.67507 85.2826 0.853953 85.3558 0.99218C85.4615 1.21172 85.4777 1.48817 85.4615 2.52895C85.429 3.66729 85.4127 3.82178 85.2663 3.9844C85.1769 4.09011 84.9817 4.2202 84.8435 4.27712C84.6321 4.36656 83.9979 4.39095 79.5177 4.39095L78.9648 4.96013V13.8474C78.9648 20.7343 78.9404 22.7671 78.8591 22.9216C78.8103 23.0273 78.6721 23.1818 78.5582 23.2631C78.3793 23.3932 78.1517 23.4176 76.8101 23.4338C75.4684 23.4501 75.2326 23.4338 75.0456 23.3119C74.9155 23.2387 74.7692 23.0923 74.7204 22.9948C74.6391 22.8484 74.6065 20.8238 74.574 13.9449C74.5415 7.06607 74.509 5.04144 74.4358 4.90321C74.3789 4.79751 74.2081 4.64302 74.0699 4.55358C73.8178 4.39909 73.6552 4.39095 68.557 4.39095L68.2806 4.13076C68.0854 3.93562 67.9879 3.75673 67.9472 3.49654C67.9147 3.29326 67.9066 2.69157 67.9228 2.15492C67.9472 1.2849 67.9716 1.14667 68.1342 0.919001Z" fill="#DFDFDF"/>
<path d="M101.358 0.829613C101.48 0.675124 101.65 0.520634 101.756 0.48811C101.854 0.447455 105.716 0.41493 118.725 0.406799L119.295 0.975972V3.65921L118.766 4.20399L117.14 4.25278C116.246 4.28531 112.432 4.3097 101.813 4.3097L101.203 3.75679L101.179 2.4233C101.146 1.09794 101.146 1.09794 101.358 0.829613Z" fill="#DFDFDF"/>
<path fill-rule="evenodd" clip-rule="evenodd" d="M42.2936 0.244275C42.0009 0.276799 41.4399 0.390633 41.0333 0.480075C40.6268 0.577647 39.9763 0.789054 39.5697 0.951675C39.1632 1.10616 38.5615 1.39075 38.2281 1.56963C37.8947 1.75665 37.3256 2.11441 36.9678 2.36648C36.61 2.61854 36.049 3.07388 35.7156 3.38286C35.3822 3.69183 34.9025 4.20409 34.6505 4.51307C34.3984 4.82205 34.0813 5.24486 33.9431 5.44814C33.8048 5.65141 33.5121 6.16367 33.2844 6.58648C33.0568 7.0093 32.7478 7.72483 32.5933 8.17204C32.4388 8.61924 32.2518 9.27786 32.1786 9.63562C32.1054 9.99339 32.0079 10.6845 31.9672 11.1805C31.9184 11.766 31.9184 12.392 31.9672 13.01C32.016 13.5223 32.1054 14.1971 32.1705 14.5142C32.2355 14.8314 32.39 15.3924 32.512 15.7746C32.634 16.1567 32.9348 16.8722 33.1787 17.3601C33.4308 17.8561 33.8536 18.5635 34.1219 18.9457C34.3903 19.3278 34.992 20.019 35.4636 20.4906C35.9352 20.9622 36.6426 21.572 37.0491 21.8403C37.4557 22.1168 38.1468 22.5233 38.594 22.751C39.0412 22.9705 39.6266 23.2307 39.895 23.3202C40.1633 23.4096 40.6756 23.5641 41.0333 23.6535C41.3911 23.7511 42.066 23.8649 42.5376 23.9137C43.0092 23.9625 43.8304 23.9869 44.367 23.9625C44.9037 23.9381 45.7087 23.8405 46.1559 23.7511C46.6031 23.6617 47.2942 23.4747 47.7008 23.3283C48.1073 23.1901 48.6846 22.9461 49.0017 22.7916C49.3188 22.629 49.8799 22.3038 50.262 22.0517C50.6442 21.8078 51.2459 21.3687 51.5955 21.0679C51.9533 20.7751 52.49 20.2385 52.7827 19.8807C53.0835 19.523 53.5145 18.9538 53.7421 18.6204C53.9698 18.287 54.3357 17.6284 54.5634 17.1568C54.7829 16.6852 55.0594 16.0104 55.1813 15.6526C55.2952 15.2948 55.4496 14.7094 55.5147 14.3516C55.5879 13.9939 55.6611 13.2051 55.6854 12.6035C55.7098 11.9448 55.6936 11.1643 55.6285 10.652C55.5797 10.1804 55.4578 9.52179 55.3683 9.18842C55.2789 8.85504 55.1569 8.41597 55.0838 8.21269C55.0187 8.00942 54.7829 7.46464 54.5552 6.99304C54.3357 6.52144 53.9617 5.84656 53.7177 5.48879C53.4819 5.13103 53.051 4.56186 52.7664 4.22848C52.4818 3.89511 51.937 3.35846 51.563 3.04135C51.1809 2.72424 50.6198 2.30143 50.3027 2.09815C49.9856 1.89488 49.4083 1.5615 49.0017 1.35823C48.5952 1.16308 47.9203 0.878496 47.4975 0.740268C47.0747 0.60204 46.4486 0.431288 46.1152 0.36624C45.7818 0.293061 44.9037 0.228012 44.1638 0.203619C43.4238 0.187357 42.5863 0.203619 42.2936 0.244275ZM42.9035 4.30983C42.6352 4.34236 42.066 4.48872 41.6432 4.62694C41.2204 4.7733 40.6349 5.02536 40.3422 5.19612C40.0495 5.36687 39.5454 5.72463 39.212 5.98483C38.8868 6.25315 38.3826 6.75727 38.0899 7.11504C37.8053 7.47281 37.3907 8.13142 37.1711 8.57863C36.9434 9.03397 36.6751 9.7495 36.5532 10.2048C36.3824 10.8716 36.3418 11.205 36.3418 12.0343C36.3418 12.6685 36.3905 13.2702 36.4718 13.6443C36.545 13.9614 36.7076 14.5143 36.8459 14.8558C36.976 15.2054 37.2362 15.7421 37.4232 16.0592C37.6021 16.3763 37.9598 16.8804 38.2119 17.1894C38.4721 17.4984 38.9518 17.97 39.2933 18.2464C39.643 18.5229 40.204 18.8969 40.5536 19.0839C40.9114 19.2709 41.505 19.5149 41.8871 19.6206C42.2693 19.7344 42.9035 19.8482 43.3101 19.8808C43.7491 19.9133 44.3183 19.897 44.733 19.8401C45.1151 19.7913 45.7331 19.645 46.1153 19.5149C46.4974 19.3766 47.0991 19.1002 47.4488 18.8888C47.7984 18.6692 48.3838 18.222 48.7416 17.8887C49.0994 17.5553 49.5547 17.0593 49.7498 16.791C49.9531 16.5227 50.2946 15.9372 50.5142 15.49C50.7337 15.0428 50.9939 14.3842 51.0833 14.0264C51.189 13.6117 51.2703 13.01 51.2947 12.3596C51.3273 11.5546 51.3029 11.1887 51.1809 10.5707C51.0915 10.1479 50.8882 9.4893 50.7174 9.10715C50.5548 8.72499 50.2702 8.16394 50.0751 7.85497C49.8881 7.54599 49.4978 7.03373 49.2051 6.72475C48.9123 6.40764 48.4407 5.9767 48.148 5.75716C47.8553 5.53762 47.2943 5.18798 46.8877 4.99284C46.4812 4.79769 45.8795 4.56189 45.5461 4.48058C45.2127 4.39114 44.5866 4.3017 44.1638 4.28544C43.741 4.26105 43.1718 4.26918 42.9035 4.30983Z" fill="#DFDFDF"/>
<path d="M138.525 0.423061C138.882 0.325488 139.5 0.195392 139.907 0.122212C140.444 0.0409019 141.135 0.0165088 142.509 0.0327709C143.997 0.057164 144.534 0.0978192 145.111 0.227916C145.517 0.317357 146.192 0.504371 146.615 0.642599C147.038 0.780826 147.737 1.08981 148.16 1.33374C148.583 1.56954 149.168 1.90291 149.453 2.08179C149.737 2.25254 150.046 2.50461 150.128 2.64283C150.225 2.79732 150.274 2.99247 150.25 3.17135C150.233 3.3665 149.989 3.78931 149.453 4.5455C149.03 5.14719 148.599 5.70824 148.485 5.78955C148.363 5.88712 148.152 5.95217 147.957 5.94404C147.713 5.94404 147.444 5.83833 146.859 5.49683C146.436 5.24477 145.704 4.887 145.233 4.70812C144.761 4.5211 144.054 4.30157 143.647 4.22026C143.208 4.13081 142.574 4.06577 142.062 4.06577C141.59 4.06577 140.988 4.10642 140.72 4.15521C140.452 4.20399 139.956 4.35035 139.622 4.48045C139.289 4.61055 138.834 4.85448 138.606 5.02523C138.386 5.19598 138.118 5.48057 138.021 5.65132C137.923 5.8302 137.817 6.13918 137.785 6.34246C137.76 6.54573 137.777 6.86284 137.825 7.05799C137.882 7.27753 138.037 7.52959 138.265 7.74913C138.46 7.9524 138.866 8.22886 139.216 8.39148C139.549 8.5541 140.151 8.77364 140.557 8.8956C140.964 9.00944 141.842 9.22898 142.509 9.38346C143.176 9.53795 144.225 9.75749 144.826 9.87133C145.428 9.98516 146.331 10.2128 146.818 10.3755C147.306 10.5381 147.949 10.7901 148.241 10.9365C148.534 11.0829 149.038 11.3918 149.363 11.6195C149.681 11.8472 150.136 12.2619 150.372 12.5383C150.599 12.8229 150.925 13.3433 151.095 13.701C151.266 14.0588 151.477 14.5873 151.551 14.88C151.664 15.2866 151.697 15.7013 151.689 16.7095C151.681 17.7666 151.648 18.1325 151.502 18.661C151.412 19.0187 151.209 19.5635 151.055 19.8806C150.9 20.1977 150.575 20.6856 150.331 20.9783C150.095 21.271 149.681 21.6695 149.412 21.8646C149.152 22.0679 148.672 22.3687 148.363 22.5395C148.054 22.7021 147.518 22.9379 147.184 23.0517C146.851 23.1737 146.225 23.3445 145.802 23.442C145.127 23.5884 144.761 23.6128 142.915 23.6209C141.013 23.6209 140.712 23.6047 139.866 23.4339C139.354 23.3282 138.655 23.1574 138.321 23.0436C137.988 22.9379 137.362 22.7021 136.939 22.5232C136.516 22.3443 135.907 22.0435 135.598 21.8565C135.289 21.6695 134.768 21.3442 134.459 21.1409C134.15 20.9295 133.817 20.6693 133.727 20.5718C133.619 20.4525 133.565 20.2791 133.565 20.0514C133.565 19.7668 133.679 19.5554 134.329 18.5797C134.744 17.9536 135.167 17.3763 135.264 17.3031C135.362 17.2218 135.573 17.1567 135.76 17.1567C135.996 17.1567 136.24 17.2462 136.655 17.4901C136.964 17.6771 137.663 18.0512 138.199 18.3276C138.736 18.6041 139.468 18.9456 139.826 19.0838C140.183 19.222 140.785 19.4009 141.167 19.4741C141.615 19.5717 142.216 19.6204 142.875 19.6286C143.598 19.6286 144.054 19.5879 144.46 19.4822C144.769 19.4009 145.29 19.2058 145.599 19.0431C145.924 18.8805 146.347 18.5797 146.574 18.3439C146.843 18.0755 147.046 17.7666 147.168 17.4657C147.266 17.2055 147.347 16.8559 147.347 16.6851C147.347 16.5225 147.298 16.2379 147.241 16.0672C147.192 15.8883 146.997 15.5874 146.818 15.3842C146.615 15.1646 146.282 14.9207 145.924 14.75C145.615 14.6036 145.03 14.3841 144.623 14.2702C144.216 14.1564 142.94 13.8799 141.777 13.6604C140.614 13.4409 139.281 13.1481 138.809 13.0018C138.338 12.8635 137.549 12.5546 137.061 12.3188C136.541 12.0748 135.915 11.6927 135.557 11.4081C135.224 11.1398 134.776 10.7007 134.565 10.4405C134.362 10.1722 134.061 9.68431 133.898 9.35094C133.719 8.96878 133.565 8.47279 133.483 8.00932C133.418 7.6109 133.362 7.05799 133.362 6.78966C133.362 6.52134 133.402 6.04974 133.443 5.73263C133.483 5.42365 133.605 4.87074 133.719 4.51297C133.833 4.15521 134.077 3.62669 134.264 3.33397C134.451 3.04126 134.793 2.61031 135.02 2.36638C135.248 2.13058 135.671 1.76468 135.963 1.55328C136.256 1.35 136.801 1.04915 137.183 0.88653C137.565 0.723909 138.167 0.512502 138.525 0.423061Z" fill="#DFDFDF"/>
</svg>
