<svg width="69" height="80" viewBox="0 0 69 80" fill="none" xmlns="http://www.w3.org/2000/svg">
<path fill-rule="evenodd" clip-rule="evenodd" d="M11.8639 54.2072H8.08878L15.4102 25.5177H20.6726C21.6259 25.6456 23.3952 26.5732 22.8461 29.2598C22.297 31.9464 20.3294 39.0788 19.4142 42.3092C19.2235 43.3327 18.2702 45.3796 15.9822 45.3796H14.0375L11.8639 54.2072ZM13.8079 42.597H15.1807C15.4476 42.597 16.0501 42.3284 16.3246 41.2537L19.1983 28.78C19.3165 28.3003 18.3517 28.0892 18.1687 28.78L15.4094 40.678C15.295 41.3177 14.8146 42.597 13.8079 42.597Z" fill="#DFDFDF"/>
<path fill-rule="evenodd" clip-rule="evenodd" d="M29.0984 54.303L36.3054 25.5176H41.2246C42.2923 25.6775 44.3133 26.6114 43.8557 29.0678C43.3981 31.5241 40.1568 44.42 38.5934 50.5609C38.3265 51.8083 37.1062 54.303 34.3607 54.303H29.0984ZM32.3015 51.7106H33.6742C33.9412 51.7106 34.5437 51.442 34.8182 50.3673C35.0928 49.2927 38.4408 35.7187 40.0805 29.0661C40.1988 28.5864 39.234 28.3753 39.0509 29.0661L33.903 49.7916C33.7886 50.4313 33.3082 51.7106 32.3015 51.7106Z" fill="#DFDFDF"/>
<path d="M50.2079 54.4175L57.2695 25.5177H60.9685L55.364 48.4449C54.8036 50.5642 53.5706 51.3349 53.1222 51.3349H58.7267L57.9421 54.4175H50.2079Z" fill="#DFDFDF"/>
<path d="M7.31929 10.7599L0.709229 19.0609C3.42499 19.6758 9.84034 20.9056 13.7756 20.9056C12.4229 17.0933 8.90776 12.5533 7.31929 10.7599Z" fill="#DFDFDF"/>
<path d="M62.1972 10.7599L68.8073 19.0609C66.0915 19.6758 59.6761 20.9056 55.7408 20.9056C57.0936 17.0933 60.6087 12.5533 62.1972 10.7599Z" fill="#DFDFDF"/>
<path d="M48.3636 21.8286C36.9267 23.0584 25.459 22.341 21.1547 21.8286C20.2324 15.8334 15.3133 9.37707 12.7 6.61007C17.0042 3.99679 24.9978 0 35.7584 0C46.5189 0 53.129 3.99679 56.5109 7.22496C51.7455 13.0664 50.2083 16.1409 48.3636 21.8286Z" fill="#DFDFDF"/>
<path d="M7.31929 69.2401L0.709229 60.939C3.42499 60.3242 9.84034 59.0944 13.7756 59.0944C12.4229 62.9067 8.90776 67.4466 7.31929 69.2401Z" fill="#DFDFDF"/>
<path d="M62.1972 69.2401L68.8073 60.939C66.0915 60.3242 59.6761 59.0944 55.7408 59.0944C57.0936 62.9067 60.6087 67.4466 62.1972 69.2401Z" fill="#DFDFDF"/>
<path d="M48.3636 58.1712C36.9267 56.9414 25.459 57.6587 21.1547 58.1712C20.2324 64.1663 15.3133 70.6227 12.7 73.3897C17.0042 76.003 24.9978 79.9998 35.7584 79.9998C46.5189 79.9998 53.129 76.003 56.5109 72.7748C51.7455 66.9333 50.2083 63.8589 48.3636 58.1712Z" fill="#DFDFDF"/>
</svg>
