<svg width="95" height="60" viewBox="0 0 95 60" fill="none" xmlns="http://www.w3.org/2000/svg">
<path fill-rule="evenodd" clip-rule="evenodd" d="M63.264 0C63.2961 0 64.8744 0.784676 66.7652 1.74373C68.664 2.69485 70.6749 3.72523 71.2518 4.03435C72.077 4.47028 72.3254 4.63672 72.4375 4.85073C72.5096 4.99339 72.5978 5.25495 72.6218 5.42933C72.6619 5.69089 72.5898 5.94452 72.1892 6.93527C71.9248 7.59313 71.2117 9.29723 70.6108 10.7398C70.01 12.1823 69.2088 14.0687 68.8322 14.9406C68.4557 15.8124 68.0791 16.6605 67.999 16.8269C67.9109 16.9855 67.7266 17.1915 67.5904 17.2787C67.4462 17.3659 67.2299 17.4373 67.1097 17.4373C66.9815 17.4373 66.7892 17.3501 66.669 17.255C66.5408 17.1519 66.3966 16.9617 66.3486 16.8349C66.2925 16.7081 66.0121 15.5033 65.7317 14.148C65.4432 12.7926 64.7622 9.44782 64.2174 6.69749C63.6646 3.94716 63.1999 1.56143 63.1919 1.38705C63.1839 1.21268 63.1759 0.832232 63.1839 0.531044C63.1919 0.237781 63.224 0 63.264 0ZM50.0045 10.8666C50.9018 10.8587 51.727 10.9062 52.2478 10.9775C52.6964 11.0489 53.4816 11.2074 53.9863 11.3421C54.4911 11.4769 55.2122 11.7067 55.5887 11.8653C55.9653 12.0159 56.5742 12.3012 56.9507 12.4993C57.3273 12.6896 57.9522 13.0779 58.3528 13.3554C58.7534 13.6328 59.3783 14.1321 59.7468 14.4729C60.1154 14.8217 60.6281 15.3448 60.8765 15.6539C61.1329 15.963 61.5815 16.5971 61.87 17.0806C62.1664 17.5641 62.551 18.325 62.7352 18.7847C62.9115 19.2444 63.1438 19.9577 63.248 20.3699C63.3521 20.782 63.4964 21.535 63.5685 22.0343C63.6646 22.7081 63.6886 23.2867 63.6566 24.2536C63.6326 24.9749 63.5604 25.8864 63.4883 26.2748C63.4162 26.6631 63.272 27.3289 63.1599 27.7411C63.0557 28.1532 62.8474 28.8349 62.6952 29.247C62.5429 29.6592 62.2305 30.4122 62.0062 30.9115C61.7818 31.4108 61.3732 32.2114 61.1088 32.6948C60.8364 33.1704 60.3878 33.9234 60.0993 34.3593C59.8109 34.7952 59.3542 35.4373 59.0899 35.786C58.8255 36.1347 58.2566 36.8085 57.84 37.284C57.4154 37.7596 56.6703 38.5046 56.1896 38.9406C55.7089 39.3686 54.9397 39.9947 54.4911 40.3276C54.0344 40.6684 53.2813 41.1836 52.8086 41.4769C52.3279 41.7701 51.2944 42.3329 50.5012 42.7213C49.4997 43.2048 48.987 43.498 48.8267 43.6882C48.6986 43.8309 48.5303 44.0925 48.4502 44.2668C48.346 44.4888 48.2659 45.0357 48.1778 46.1295C48.1137 46.9775 47.9134 49.9577 47.7371 52.7477C47.5609 55.5376 47.3766 58.0343 47.3285 58.2959C47.2805 58.5575 47.1763 58.8983 47.0962 59.0489C47.0241 59.1995 46.8478 59.4214 46.7036 59.5403C46.5674 59.6671 46.303 59.8098 46.1188 59.8573C45.8624 59.9287 44.917 59.9524 42.4894 59.9366C40.6867 59.9207 39.1966 59.9049 39.1966 59.897C39.1885 59.889 39.2687 58.2721 39.3728 56.3144C39.477 54.3487 39.7253 49.7834 39.9256 46.1691C40.1259 42.5548 40.4304 37.3236 40.6066 34.5575C40.7829 31.7913 40.9992 28.6129 41.0873 27.5033C41.1675 26.3937 41.2956 25.2682 41.3678 25.0066C41.4399 24.745 41.5921 24.3567 41.7123 24.1427C41.8324 23.9287 42.0728 23.6433 42.2491 23.5165C42.4253 23.3897 42.6977 23.2391 42.8499 23.1757C43.0022 23.1044 43.3627 23.0092 43.6511 22.9458C43.9395 22.8904 44.4283 22.819 44.7327 22.7873C45.0452 22.7635 45.9425 22.6684 46.7357 22.5812C47.5288 22.4941 48.2739 22.4069 48.6184 22.3514V28.2959C48.6184 31.5694 48.6264 34.2404 48.6425 34.2404C48.6505 34.2404 49.0911 34.0581 49.6199 33.8441C50.1487 33.6222 50.7736 33.3289 51.014 33.1863C51.2463 33.0515 51.7751 32.6552 52.1917 32.3144C52.6083 31.9815 53.1852 31.4267 53.4736 31.0859C53.762 30.753 54.1546 30.2457 54.3469 29.9604C54.5392 29.675 54.8596 29.1044 55.0599 28.6922C55.2522 28.2801 55.4926 27.7094 55.5887 27.424C55.6848 27.1387 55.8371 26.6077 55.9172 26.2351C56.0133 25.8547 56.1015 25.1017 56.1255 24.4914C56.1575 23.8018 56.1335 23.2232 56.0774 22.8666C56.0213 22.5575 55.8851 22.066 55.781 21.7569C55.6688 21.4478 55.4285 20.9564 55.2362 20.6473C55.0439 20.3382 54.6754 19.8943 54.411 19.6486C54.1546 19.4108 53.7139 19.0779 53.4255 18.9115C53.1371 18.745 52.6564 18.5231 52.3439 18.428C52.0395 18.325 51.5107 18.1982 51.1822 18.1427C50.7976 18.0872 50.1647 18.0713 49.4196 18.103C48.7787 18.1268 47.7211 18.2061 47.0561 18.2695C46.3992 18.3408 45.3176 18.4676 44.6526 18.5548C43.9956 18.642 42.241 18.9115 40.7669 19.1493C39.2927 19.3871 37.5061 19.6882 36.801 19.823C36.096 19.9498 33.7005 20.4174 31.4732 20.8534C29.2459 21.2893 27.0827 21.7015 26.6661 21.7649C26.2495 21.8203 25.8729 21.8758 25.8249 21.8758C25.7848 21.8758 25.6967 21.5667 25.6406 21.1863C25.5845 20.7979 25.5124 19.934 25.4884 19.2602C25.4563 18.3091 25.4723 17.8811 25.5765 17.358C25.6486 16.9855 25.8168 16.4544 25.9611 16.1691C26.1133 15.8679 26.4017 15.4795 26.6661 15.218C26.9145 14.9802 27.3631 14.6552 27.6756 14.4888C27.98 14.3303 28.5168 14.1083 28.8693 13.9974C29.2219 13.8785 30.1592 13.6645 30.9524 13.5139C31.7456 13.3633 33.5322 13.0462 34.9182 12.8085C36.3043 12.5707 38.5075 12.214 39.8054 12.0159C41.1034 11.8177 42.7458 11.5799 43.4508 11.4848C44.1559 11.3976 45.598 11.2153 46.6555 11.0964C48.0176 10.9379 48.995 10.8745 50.0045 10.8666ZM15.2493 14.362C15.4736 14.354 16.1706 14.3857 16.8116 14.4333C17.4525 14.4729 18.2297 14.5601 18.5341 14.6156C18.8466 14.679 19.2632 14.7979 19.4795 14.893C19.6878 14.9802 19.9121 15.1387 19.9762 15.2338C20.0564 15.3448 20.1044 15.5905 20.1044 15.852C20.0964 16.1532 20.0083 16.5416 19.808 17.0806C19.6558 17.5165 19.3673 18.3884 19.1751 19.0225C18.9748 19.6565 18.6943 20.4174 18.5421 20.7266C18.3979 21.0357 18.0774 21.4874 17.8451 21.7411C17.5807 22.0264 17.2442 22.288 16.9718 22.4148C16.5712 22.6129 16.451 22.6288 15.6098 22.6209C15.1051 22.6129 14.416 22.5971 14.0876 22.5812C13.5748 22.5575 13.3745 22.5971 12.6855 22.8269C12.2448 22.9775 11.684 23.2312 11.4437 23.3897C11.1632 23.572 10.9309 23.8098 10.8107 24.0317C10.6505 24.317 10.6265 24.4597 10.6505 24.8956C10.6745 25.3078 10.7546 25.5535 11.019 26.0845C11.2033 26.4491 11.644 27.1229 11.9885 27.5826C12.333 28.0423 12.9579 28.7477 13.3745 29.1598C13.7911 29.572 14.4321 30.1585 14.8086 30.4676C15.1852 30.7768 15.778 31.2444 16.1306 31.5059C16.4831 31.7596 17.2602 32.3065 17.8531 32.7186C18.446 33.1308 19.2552 33.7411 19.6558 34.074C20.0483 34.4069 20.6813 35.0251 21.0578 35.4531C21.4344 35.8811 21.9712 36.5786 22.2596 36.9987C22.548 37.4188 22.9726 38.1242 23.197 38.5601C23.4213 38.996 23.7418 39.6935 23.902 40.1057C24.0623 40.5178 24.3026 41.255 24.4228 41.7305C24.551 42.2061 24.7112 43.0066 24.7753 43.498C24.8474 43.9815 24.9035 44.8771 24.9035 45.4716C24.9035 46.074 24.8474 46.9617 24.7833 47.4373C24.7192 47.9128 24.599 48.5945 24.5109 48.9432C24.4228 49.2919 24.2385 49.9181 24.1023 50.3302C23.9661 50.7424 23.6537 51.4954 23.4133 51.9947C23.1729 52.4941 22.7083 53.3025 22.3798 53.7781C22.0513 54.2536 21.5626 54.9115 21.2822 55.2206C21.0017 55.5377 20.505 56.037 20.1765 56.3223C19.848 56.6156 19.2311 57.0753 18.8145 57.3527C18.3979 57.6222 17.6047 58.0581 17.0519 58.3197C16.4991 58.5812 15.746 58.8904 15.3694 59.0092C14.9929 59.1202 14.3279 59.3025 13.8873 59.4055C13.4466 59.5086 12.6935 59.6433 12.2048 59.7147C11.7241 59.7781 10.8908 59.8573 10.3621 59.8811C9.80925 59.9128 8.96801 59.897 8.39918 59.8494C7.84636 59.7939 7.10927 59.6988 6.75676 59.6354C6.40424 59.5641 5.75528 59.3976 5.31463 59.2708C4.87398 59.144 4.06479 58.819 3.51197 58.5654C2.95916 58.3038 2.27816 57.9313 1.98973 57.749C1.70131 57.5588 1.26867 57.1942 1.02832 56.9326C0.787961 56.6711 0.491524 56.2589 0.363335 56.0291C0.235146 55.7754 0.106958 55.3554 0.0588868 55.0066C0.00280413 54.642 -0.0132195 53.8336 0.0108159 52.9062C0.0428632 52.074 0.139005 50.7741 0.227135 50.0132C0.347312 49.0462 0.459477 48.5073 0.579654 48.2299C0.675796 48.0159 0.900126 47.675 1.07639 47.4848C1.24463 47.2946 1.51704 47.0568 1.66926 46.9617C1.82148 46.8666 2.20605 46.7318 2.5105 46.6605C2.82296 46.5812 3.41583 46.4782 3.83245 46.4148C4.24906 46.3514 5.30662 46.2166 6.17189 46.1136C7.03717 46.0106 7.76624 45.9472 7.79028 45.9709C7.81431 45.9947 7.78227 46.5495 7.71016 47.1995C7.64607 47.8573 7.58998 48.745 7.58998 49.181C7.58197 49.6962 7.63004 50.14 7.71817 50.4491C7.79028 50.7107 7.95051 51.0674 8.07069 51.2417C8.19087 51.4161 8.44725 51.6777 8.64754 51.8203C8.83982 51.9709 9.25644 52.1612 9.56089 52.2563C10.0015 52.391 10.314 52.4227 11.0431 52.4227C11.6199 52.4148 12.1727 52.3672 12.5253 52.2801C12.8377 52.2087 13.3745 52.0106 13.727 51.8441C14.0795 51.6777 14.6003 51.3606 14.8887 51.1387C15.1772 50.9089 15.6018 50.5046 15.8341 50.2272C16.0745 49.9498 16.435 49.3871 16.6513 48.9432C16.8917 48.4597 17.092 47.9128 17.1641 47.5403C17.2362 47.1995 17.2923 46.6764 17.2923 46.3672C17.2923 46.0581 17.2362 45.535 17.1641 45.2021C17.092 44.8613 16.9478 44.3699 16.8436 44.1083C16.7315 43.8468 16.427 43.2365 16.1546 42.7609C15.8822 42.2853 15.4816 41.6196 15.2653 41.2946C15.041 40.9696 14.6243 40.3989 14.3359 40.0264C14.0555 39.6539 13.2383 38.782 12.5333 38.0845C11.7802 37.3474 10.8588 36.531 10.322 36.1347C9.81727 35.7622 8.95199 35.144 8.39918 34.7556C7.84636 34.3672 7.03717 33.7569 6.59652 33.4003C6.15587 33.0436 5.43481 32.3778 4.98615 31.926C4.5455 31.4822 4.01672 30.8798 3.81642 30.5945C3.62414 30.3091 3.35174 29.8811 3.21554 29.6433C3.08735 29.4055 2.87904 28.9775 2.76688 28.6922C2.65471 28.4069 2.48646 27.8917 2.39032 27.5429C2.28617 27.1387 2.20605 26.5363 2.174 25.8785C2.14196 25.2365 2.16599 24.5945 2.22207 24.1744C2.27816 23.8018 2.43839 23.144 2.58261 22.7081C2.73483 22.2721 2.96717 21.6935 3.10337 21.424C3.23957 21.1466 3.47192 20.7345 3.62414 20.5125C3.76835 20.2827 4.10485 19.823 4.36924 19.498C4.63363 19.1731 5.2265 18.5469 5.69119 18.111C6.14786 17.675 6.8529 17.0885 7.2615 16.8032C7.6701 16.5178 8.33508 16.1215 8.74368 15.9075C9.14427 15.7015 9.76919 15.424 10.1217 15.2893C10.4742 15.1546 11.1632 14.9485 11.644 14.8296C12.1327 14.7028 12.9018 14.5601 13.3665 14.5126C13.8312 14.465 14.3519 14.4095 14.5282 14.3937C14.7045 14.3857 15.033 14.3699 15.2493 14.362ZM86.1137 16.5733C86.2659 16.5654 86.5383 16.605 86.7146 16.6526C86.8908 16.7081 87.8603 17.1361 88.8777 17.6116C89.8952 18.0951 91.0009 18.6499 91.3454 18.8481C91.6979 19.0542 92.1225 19.3633 92.2908 19.5376C92.467 19.712 92.6753 19.9974 92.7555 20.1717C92.8356 20.3461 92.9477 20.7583 92.9958 21.0832C93.0439 21.4082 93.14 23.2153 93.2041 25.0859C93.2762 26.9564 93.3644 32.4174 93.4044 37.2127C93.4445 42.0079 93.4925 46.9855 93.5246 48.2695C93.5486 49.5535 93.6047 51.1625 93.6528 51.8362C93.6928 52.5099 93.8531 54.5469 94.0053 56.354C94.1575 58.1612 94.2857 59.7226 94.2857 60H90.2398C86.4662 60 86.1858 59.9921 86.1217 59.8653C86.0816 59.786 83.9184 54.0872 81.3066 47.1995C78.6947 40.3118 76.5396 34.6605 76.5236 34.6367C76.5155 34.6129 76.4835 34.6129 76.4595 34.6367C76.4434 34.6605 75.7945 40.3197 75.0173 47.2232C74.2482 54.1189 73.6153 59.8018 73.6153 59.8415C73.6153 59.897 72.093 59.9207 69.2088 59.9207C65.7397 59.9207 64.8023 59.897 64.8023 59.8256C64.8023 59.7701 64.8584 59.0251 64.9225 58.177C64.9865 57.3289 65.0827 56.2906 65.1227 55.8785C65.1708 55.4663 66.1803 47.9049 67.3661 39.0753C68.5518 30.2457 69.5613 22.8111 69.6094 22.5495C69.6574 22.288 69.8016 21.852 69.9298 21.5826C70.066 21.3052 70.3384 20.9168 70.5548 20.7107C70.8592 20.4174 71.38 20.1242 73.2147 19.2285C74.4725 18.6103 75.6983 18.0476 75.9387 17.9683C76.2431 17.8653 76.4675 17.8415 76.6598 17.8811C76.812 17.9128 77.0443 18.0317 77.1725 18.1427C77.3007 18.2536 77.485 18.4914 77.5811 18.6658C77.6853 18.8402 78.3262 20.2985 79.0072 21.9155C79.6882 23.5324 81.3947 27.5984 82.7888 30.9511C84.6796 35.4927 85.3846 37.1176 85.7932 37.5297V36.9353C85.7932 36.6103 85.7371 35.0251 85.673 33.4082C85.6089 31.7913 85.4968 29.2629 85.4327 27.7807C85.3606 26.2985 85.2404 24 85.1523 22.6684C85.0641 21.3369 84.976 19.7358 84.944 19.1017C84.8959 18.1664 84.9119 17.8732 85.0161 17.5165C85.0882 17.2629 85.2324 16.9934 85.3686 16.8745C85.4888 16.7556 85.649 16.6446 85.7131 16.6209C85.7772 16.5971 85.9614 16.5733 86.1137 16.5733ZM35.3188 27.9868C35.3829 27.9868 35.5993 28.0978 35.7995 28.2404C35.9998 28.3831 36.2322 28.6446 36.3123 28.819C36.4004 28.9855 36.4966 29.3104 36.5286 29.5244C36.5607 29.7543 36.4805 31.4346 36.3524 33.4478C36.2242 35.3897 35.9037 40.5416 35.6393 44.9009C35.3749 49.2602 35.0705 54.325 34.9583 56.1559C34.8461 57.9868 34.758 59.5482 34.758 59.6275C34.758 59.7543 34.5096 59.7622 26.7061 59.7622L26.7702 58.716C26.8103 58.1374 26.8904 56.9881 26.9465 56.1559C27.0106 55.3236 27.3872 51.3844 27.7877 47.3976C28.1883 43.4108 28.6931 38.3223 28.9014 36.103C29.2299 32.7266 29.326 31.9815 29.4782 31.5852C29.6064 31.2523 29.7827 30.9908 30.0631 30.7133C30.4076 30.3884 30.8643 30.1268 32.8352 29.1519C34.1331 28.5099 35.2547 27.9868 35.3188 27.9868Z" fill="#DFDFDF"/>
</svg>
