<svg width="84" height="80" viewBox="0 0 84 80" fill="none" xmlns="http://www.w3.org/2000/svg">
<path d="M64.5756 79.7591C64.4516 79.6424 64.4443 79.358 64.4224 75.6968L64.4005 71.7584H69.4401V72.8524H65.9394V75.2592H68.6379V76.4261H65.9394V78.1035C65.9394 79.6351 65.9248 79.7883 65.8081 79.8321C65.7425 79.8612 65.4653 79.8904 65.1955 79.8904C64.8235 79.8904 64.6777 79.8612 64.5756 79.7591Z" fill="#DFDFDF"/>
<path d="M78.3965 75.8208C78.3892 73.5963 78.4111 71.7584 78.4476 71.7365C78.4841 71.7074 79.6218 71.6855 83.4435 71.6855V72.8524H79.9427V75.0404H82.6412V76.2073H79.9427V78.687H83.5164V79.8539H78.4111L78.3965 75.8208Z" fill="#DFDFDF"/>
<path d="M71.2643 79.8539V75.7697V71.6855H76.2967V72.8524H72.723V75.0404H75.4944V76.2073H72.723V78.687H76.3696V79.8539H71.2643Z" fill="#DFDFDF"/>
<path d="M57.699 79.8539V75.7697V71.6855L62.6219 71.722L62.6584 72.8524H59.1576V75.2592H61.8561V76.4261H59.1576V79.8539H57.699Z" fill="#DFDFDF"/>
<path d="M29.4005 79.8539V75.7697V71.6855H30.8592V75.0404H34.287V71.6855H35.7456V79.8539H34.3599V76.2802H30.9321L30.8956 79.8175L29.4005 79.8539Z" fill="#DFDFDF"/>
<path fill-rule="evenodd" clip-rule="evenodd" d="M16.835 71.8531C16.7402 71.9406 16.5798 72.2761 16.4631 72.597C16.3537 72.9179 15.9307 74.0848 15.5295 75.1861C15.1284 76.2874 14.5887 77.7752 14.3334 78.49C14.0782 79.1974 13.8667 79.7882 13.8667 79.8028C13.8667 79.81 14.1001 79.8392 14.3918 79.8611C14.7346 79.8903 14.9825 79.8757 15.0919 79.8246C15.194 79.7809 15.3034 79.6131 15.3764 79.4162C15.4347 79.2339 15.5733 78.8619 15.6827 78.5848C15.7921 78.2858 15.9452 78.0232 16.0546 77.943C16.2151 77.819 16.3828 77.8044 17.4987 77.8117C18.7021 77.8117 18.7604 77.819 18.9209 77.9794C19.0157 78.067 19.147 78.3076 19.2272 78.5046C19.3001 78.7088 19.446 79.0588 19.5481 79.2995C19.6745 79.5864 19.8058 79.7614 19.9419 79.8246C20.0513 79.883 20.2629 79.9267 20.416 79.9267C20.5619 79.9267 20.8098 79.9122 20.963 79.8903L21.2329 79.8538C20.788 78.5848 20.168 76.8198 19.5627 75.1132C18.7313 72.7721 18.4177 71.9771 18.2791 71.8531C18.1259 71.7072 18.0165 71.6854 17.5498 71.6854C17.0757 71.6854 16.9736 71.7072 16.835 71.8531ZM17.3748 73.6983C17.3237 73.815 17.0684 74.5152 16.8132 75.2591C16.7675 75.3921 16.7233 75.521 16.6814 75.643C16.489 76.203 16.3464 76.6182 16.3464 76.6302C16.3464 76.6375 16.8351 76.6448 17.4404 76.6448C18.1187 76.6448 18.5344 76.6156 18.5344 76.5719C18.5344 76.5354 18.301 75.8352 18.0166 75.0257C17.7321 74.2089 17.4915 73.5306 17.4842 73.516C17.4769 73.5014 17.4258 73.5816 17.3748 73.6983Z" fill="#DFDFDF"/>
<path d="M8.01705 75.8208C8.00976 73.5963 8.03164 71.7584 8.06811 71.7365C8.10457 71.7074 8.43277 71.6855 9.49029 71.6855V78.687H12.9181V79.8539H8.03164L8.01705 75.8208Z" fill="#DFDFDF"/>
<path d="M42.9299 71.963C43.1706 71.8463 43.579 71.7296 43.8416 71.6931C44.1041 71.6566 44.4542 71.6275 44.6219 71.6202C44.797 71.6202 45.3221 71.6421 45.7889 71.6785C46.5765 71.7442 46.664 71.766 46.8318 71.9338C46.9922 72.1015 47.0141 72.1818 46.9922 72.5464C46.9777 72.7725 46.9631 72.9694 46.9558 72.9767C46.9485 72.9767 46.5109 72.933 45.9931 72.8746C45.4752 72.8163 44.8626 72.7871 44.6438 72.8017C44.425 72.8163 44.0749 72.9038 43.878 72.9913C43.6738 73.0788 43.4331 73.2247 43.3456 73.3122C43.2508 73.3997 43.1049 73.5966 43.032 73.7425C42.9591 73.8957 42.857 74.2603 42.8132 74.5448C42.7622 74.8657 42.7476 75.4491 42.7695 76.0253C42.7986 76.5504 42.8716 77.1703 42.9299 77.411C42.9955 77.6517 43.1195 77.9434 43.2143 78.0674C43.3019 78.1914 43.4915 78.3591 43.6301 78.4467C43.7686 78.5415 44.0749 78.6509 44.3156 78.6946C44.6657 78.7603 44.9574 78.7603 45.8107 78.6582C46.3942 78.5925 46.9047 78.5415 46.9412 78.5415C46.9777 78.5415 47.036 78.6873 47.0652 78.8697C47.1041 79.0885 47.0919 79.2586 47.0287 79.3802C46.985 79.4823 46.8245 79.6136 46.6859 79.6719C46.5474 79.7303 46.2775 79.8105 46.0806 79.8543C45.891 79.8907 45.4169 79.9491 45.0304 79.9709C44.5271 80.0001 44.1625 79.9855 43.8051 79.9053C43.5207 79.847 43.1049 79.7084 42.8643 79.5917C42.6309 79.475 42.2808 79.2197 42.0912 79.0155C41.9016 78.8113 41.6755 78.505 41.5807 78.3227C41.4931 78.1403 41.3691 77.8486 41.3108 77.6663C41.2525 77.484 41.1941 76.8713 41.1649 76.2806C41.1358 75.5075 41.1576 75.0188 41.2452 74.4573C41.323 73.9467 41.4324 73.5456 41.5734 73.2539C41.6973 72.9986 41.938 72.6777 42.1422 72.4881C42.3319 72.313 42.6892 72.0724 42.9299 71.963Z" fill="#DFDFDF"/>
<path d="M23.0994 72.1086C23.2599 71.9992 23.5443 71.8387 23.7485 71.7585C24.0767 71.6199 24.2226 71.6126 25.2436 71.6418C25.8636 71.6637 26.4908 71.7147 26.6293 71.7585C26.7679 71.8022 26.943 71.8898 27.0159 71.9627C27.118 72.0575 27.1472 72.2034 27.1399 72.5753C27.1399 72.8525 27.1326 73.0713 27.118 73.0713C27.1107 73.0713 26.7898 73.0056 26.4106 72.9254C26.0313 72.8452 25.4624 72.7795 25.1488 72.7795C24.8279 72.7795 24.4705 72.8233 24.3101 72.8889C24.1642 72.9473 23.9892 73.064 23.9236 73.1588C23.8579 73.2536 23.7777 73.4432 23.7485 73.5818C23.7193 73.7204 23.7266 73.9538 23.7704 74.0923C23.8142 74.2309 23.9381 74.4278 24.0548 74.5299C24.1788 74.6466 24.6018 74.8289 25.1342 74.9967C25.6156 75.1571 26.148 75.3395 26.3157 75.4197C26.4908 75.4926 26.7679 75.675 26.9284 75.8208C27.0961 75.974 27.3003 76.2293 27.3806 76.3897C27.4827 76.5939 27.541 76.8638 27.5629 77.3014C27.5848 77.7317 27.5556 78.0453 27.4754 78.3224C27.417 78.5412 27.2639 78.8621 27.1399 79.0299C27.0232 79.2049 26.7679 79.4456 26.571 79.5623C26.3814 79.6863 26.0094 79.8321 25.7323 79.8905C25.4624 79.9488 25.0467 79.9999 24.806 79.9999C24.5654 79.9999 24.1132 79.9634 23.7996 79.9196C23.4933 79.8832 23.0411 79.7884 22.8077 79.7227C22.567 79.6498 22.3336 79.5331 22.2753 79.4529C22.2242 79.3726 22.1805 79.2122 22.1805 79.0882C22.1805 78.9642 22.1951 78.7746 22.268 78.4318L23.0775 78.5996C23.5589 78.7017 24.1496 78.7746 24.5143 78.7746C24.9884 78.7746 25.2145 78.7381 25.477 78.6214C25.7104 78.5193 25.8709 78.3881 25.9511 78.2276C26.0167 78.1036 26.0751 77.8265 26.0751 77.615C26.0824 77.3451 26.0386 77.1847 25.9292 77.0315C25.8417 76.9221 25.6666 76.7617 25.5281 76.6887C25.3895 76.6085 24.9373 76.4408 24.5143 76.3168C24.0913 76.1928 23.6026 76.0105 23.4203 75.9083C23.238 75.799 22.9827 75.5874 22.8442 75.4343C22.7056 75.2738 22.5305 75.004 22.4503 74.8217C22.3701 74.6393 22.2899 74.282 22.268 74.0194C22.2534 73.7568 22.2753 73.4141 22.3117 73.2536C22.3555 73.0932 22.4868 72.816 22.6108 72.6337C22.7275 72.4513 22.9463 72.218 23.0994 72.1086Z" fill="#DFDFDF"/>
<path d="M1.68653 72.116C1.8251 72.0066 2.12413 71.8461 2.34293 71.7659C2.63466 71.6565 2.92639 71.62 3.40045 71.6127C3.75782 71.6127 4.34128 71.6492 4.69865 71.6857C5.04872 71.7294 5.42797 71.8096 5.55196 71.868C5.67594 71.9263 5.78534 72.0503 5.80722 72.1378C5.8291 72.2327 5.83639 72.4806 5.8291 72.6848C5.81451 72.8963 5.80722 73.0714 5.80722 73.0714C5.80722 73.0714 5.49361 73.0057 5.11436 72.9255C4.73511 72.8453 4.18812 72.7797 3.91097 72.7797C3.63383 72.7797 3.26917 72.8161 3.10872 72.8526C2.93368 72.8891 2.73676 73.0057 2.62007 73.137C2.44503 73.3266 2.41586 73.4288 2.41586 73.7788C2.41586 74.0341 2.45962 74.2675 2.52526 74.3623C2.5836 74.4571 2.72217 74.5738 2.83887 74.6321C2.94827 74.6832 3.44421 74.8655 3.94744 75.0406C4.45067 75.2083 4.99038 75.4198 5.15083 75.5146C5.31128 75.6021 5.57384 75.8209 5.74158 75.996C5.91662 76.1929 6.09166 76.4773 6.17188 76.718C6.26669 77.0243 6.28857 77.2431 6.2594 77.6297C6.23752 77.9068 6.1573 78.3006 6.09166 78.5049C6.00414 78.7382 5.8291 79.0008 5.59572 79.2415C5.33316 79.504 5.09248 79.6645 4.78616 79.7812C4.46526 79.9052 4.13706 79.9562 3.54631 79.9854C2.95556 80.0073 2.57631 79.9854 2.12413 79.8906C1.78135 79.8249 1.3948 79.7228 1.27082 79.6645C1.13225 79.6061 0.986381 79.4676 0.942621 79.3509C0.891569 79.2415 0.862396 78.9862 0.898862 78.4319L1.38751 78.5267C1.65007 78.5778 2.13871 78.6653 2.4742 78.7237C2.93368 78.8112 3.18894 78.8185 3.59736 78.7601C3.88909 78.7164 4.21 78.6288 4.3121 78.5559C4.41421 78.483 4.55278 78.3079 4.61842 78.1694C4.69135 78.0308 4.7497 77.7755 4.7497 77.5932C4.7497 77.4036 4.69135 77.1702 4.61842 77.0462C4.54549 76.9222 4.34128 76.7545 4.15894 76.6742C3.98391 76.5867 3.52443 76.4263 3.14518 76.3169C2.76593 76.2075 2.32105 76.0543 2.16059 75.9741C2.00014 75.8939 1.74488 75.7042 1.59172 75.5584C1.43856 75.4125 1.24164 75.1645 1.15413 75.0041C1.01555 74.7561 0.993674 74.5957 0.993674 73.9101C0.993674 73.1516 1.00826 73.086 1.21247 72.714C1.33646 72.5025 1.54796 72.2327 1.68653 72.116Z" fill="#DFDFDF"/>
<path fill-rule="evenodd" clip-rule="evenodd" d="M51.0838 71.6492C50.8723 71.7075 50.5223 71.8461 50.318 71.9482C50.1065 72.0576 49.7346 72.342 49.4866 72.59C49.2022 72.8745 48.9615 73.2099 48.8229 73.509C48.6989 73.7715 48.5531 74.1799 48.502 74.4206C48.451 74.6613 48.4072 75.3031 48.4072 75.8428C48.4072 76.5503 48.4437 76.9587 48.5312 77.3015C48.6041 77.564 48.7354 77.9433 48.8302 78.1402C48.9177 78.3444 49.1584 78.6872 49.3626 78.906C49.5595 79.1248 49.9242 79.4092 50.1576 79.5405C50.391 79.6645 50.7848 79.8176 51.0255 79.8833C51.2662 79.9489 51.7183 80 52.032 80C52.3383 80 52.7686 79.9635 52.9801 79.9197C53.1843 79.876 53.5562 79.7447 53.7969 79.6353C54.0376 79.5186 54.4023 79.2852 54.5992 79.1102C54.8326 78.906 55.0659 78.5851 55.2483 78.2423C55.4087 77.9433 55.5619 77.6078 55.5984 77.4838C55.6348 77.3598 55.6932 77.1045 55.7369 76.9003C55.7734 76.7034 55.8099 76.1929 55.8099 75.7699C55.8099 75.3323 55.7588 74.7561 55.6932 74.4206C55.6275 74.0997 55.4817 73.6402 55.365 73.3996C55.2483 73.1589 55.0295 72.8161 54.8763 72.6338C54.7159 72.4514 54.446 72.2181 54.2637 72.1087C54.0887 72.0066 53.7313 71.8461 53.4687 71.7586C53.1405 71.6492 52.754 71.5908 52.2289 71.569C51.6892 71.5471 51.3537 71.569 51.0838 71.6492ZM51.353 72.8451C51.1342 72.9254 50.8425 73.1004 50.7112 73.2317C50.5727 73.363 50.4049 73.5891 50.332 73.7276C50.2663 73.8662 50.1497 74.2309 50.0767 74.5299C50.0038 74.8508 49.9527 75.3686 49.9527 75.7697C49.96 76.149 50.0111 76.7106 50.084 77.0096C50.1497 77.3086 50.2663 77.6879 50.3466 77.8483C50.4268 78.0088 50.5654 78.2203 50.6529 78.3078C50.7331 78.4026 50.9373 78.5558 51.0978 78.636C51.3385 78.7673 51.5135 78.7964 52.0824 78.7964C52.6439 78.7964 52.8263 78.7673 53.067 78.6433C53.2274 78.5558 53.4535 78.3734 53.5702 78.2422C53.6869 78.1036 53.8327 77.8775 53.8911 77.7389C53.9494 77.6003 54.0661 77.1409 54.1609 76.7179C54.3141 75.9958 54.3141 75.9083 54.2193 75.2227C54.1682 74.8216 54.0734 74.3257 54.0224 74.1288C53.964 73.9245 53.8109 73.6182 53.6723 73.4432C53.541 73.2609 53.2858 73.0421 53.1034 72.9473C52.8919 72.8379 52.6002 72.7649 52.2647 72.7357C51.8636 72.7066 51.6667 72.7357 51.353 72.8451Z" fill="#DFDFDF"/>
<path fill-rule="evenodd" clip-rule="evenodd" d="M48.0497 21.2307C47.9913 21.3255 43.083 29.844 37.139 40.164C31.195 50.4766 26.345 58.9514 26.3523 58.9879C26.3668 59.0316 34.5134 54.291 44.4687 48.471C54.4167 42.6437 62.5778 37.8593 62.5924 37.8301C62.607 37.8083 59.4199 34.0668 55.5034 29.5158C51.5869 24.9721 48.3341 21.2088 48.2758 21.1578C48.181 21.0775 48.1445 21.0848 48.0497 21.2307ZM45.1473 30.3036C43.324 33.4178 41.8435 35.9923 41.858 36.0288C41.8653 36.0725 45.1911 36.1017 50.0046 36.1017C54.4754 36.1017 58.1512 36.0725 58.1657 36.0433C58.1803 36.0142 56.0288 33.447 53.3741 30.34C50.7266 27.2258 48.5387 24.6732 48.5095 24.6659C48.4803 24.6513 46.9706 27.1893 45.1473 30.3036ZM40.6474 38.1584C40.5671 38.2459 38.5761 41.6883 36.2276 45.8163C33.8792 49.937 31.9611 53.3356 31.9684 53.3794C31.983 53.4159 37.7811 49.9953 44.8701 45.7798C52.3603 41.3164 57.7136 38.0855 57.6698 38.049C57.626 38.0198 53.8117 37.9906 49.195 37.9906H40.8005L40.6474 38.1584Z" fill="#DFDFDF"/>
<path fill-rule="evenodd" clip-rule="evenodd" d="M28.5162 17.081C24.2849 19.5605 21.5536 21.161 21.5536 21.1652C21.5463 21.1725 24.7772 24.9358 28.7375 29.5233C32.6904 34.118 35.9651 37.8814 36.0015 37.8886C36.038 37.9032 40.9755 29.3993 46.9633 18.9918C52.9438 8.58436 57.8302 0.0366752 57.823 0.000208981C57.8084 -0.0362573 49.6399 4.70436 39.6773 10.539C35.4782 13.0013 31.599 15.2744 28.5162 17.081ZM39.2249 13.2596C32.1797 17.4605 26.4107 20.9175 26.4107 20.9467C26.4107 20.9832 30.2251 21.0051 34.8854 21.0051C42.9664 21.0051 43.3748 21.0051 43.5134 20.8738C43.5936 20.8008 43.8561 20.3997 44.0895 19.984C44.155 19.869 44.3444 19.5367 44.6278 19.0396C45.3868 17.7084 46.8195 15.1954 48.3488 12.5084C50.4492 8.81804 52.1777 5.75487 52.185 5.70382C52.1923 5.66006 52.1632 5.6163 52.1194 5.62359C52.0829 5.62359 46.2775 9.06601 39.2249 13.2596ZM26.0241 22.9524C26.0096 22.9815 28.1611 25.556 30.8158 28.6703C33.4706 31.7845 35.6658 34.3298 35.695 34.3225C35.7315 34.3152 37.2193 31.7991 39.0061 28.7286C40.793 25.6581 42.2662 23.0909 42.2808 23.018C42.31 22.9013 41.887 22.894 34.178 22.894C29.7145 22.894 26.0387 22.9159 26.0241 22.9451V22.9524Z" fill="#DFDFDF"/>
</svg>
