<svg width="154" height="32" viewBox="0 0 154 32" fill="none" xmlns="http://www.w3.org/2000/svg">
<path d="M20.9091 8.8338V10.862H19.9195L16.3442 31.5493H14.1416L10.6301 13.4761H10.4705L6.95905 31.5493H4.75642L1.18112 10.862H0V8.8338H5.55447V10.862H3.51145L3.28799 11.1775L6.00139 27.6732H6.12908L9.57668 9.96056H11.8112L15.2269 27.6732H15.3865L18.068 11.1775L17.8765 10.862H15.7058V8.8338H20.9091Z" fill="#DFDFDF"/>
<path d="M34.6227 31.4592C34.3673 31.7296 33.8566 31.9099 33.4735 31.9099C32.2604 31.9099 31.3666 31.2789 30.6963 29.6563H30.5366C29.4513 31.1887 28.2382 32 26.7379 32C23.8649 32 22.4922 29.5662 22.4922 25.7352C22.4922 21.2732 24.1522 18.9746 28.334 18.9746H30.3132V16.1803C30.3132 12.2592 29.4513 10.9521 26.6421 10.9521C25.3972 10.9521 24.1522 11.3127 23.2903 11.7183L23.2584 9.37465C24.0564 8.78873 25.3972 8.3831 26.8337 8.3831C30.2493 8.3831 32.2924 10.3211 32.2924 15.8648V28.8451C32.6116 29.3859 33.0904 29.7465 33.7608 29.7465C34.0481 29.7465 34.4312 29.6113 34.6227 29.5211V31.4592ZM30.3132 28.7549V21.0028H28.334C25.3014 21.0028 24.5991 22.4451 24.5991 25.5099C24.5991 28.1239 25.1418 29.6563 27.4402 29.6563C28.4298 29.6563 29.579 29.2958 30.3132 28.7549Z" fill="#DFDFDF"/>
<path d="M49.6563 31.5493H47.6133C46.8153 31.369 46.1449 30.738 44.3572 26.5465L42.1546 21.3634L39.7285 25.3746V29.2056L39.92 29.5211H41.8035V31.5493H35.7063V29.5211H37.5259L37.7174 29.2056V2.34366L37.5259 2.02817H35.3871V0H39.7285V22.6704H39.8881L45.7299 11.1775L45.6022 10.862H43.4953V8.8338H49.4648V10.862H47.9645L43.5273 19.0648L46.113 25.1042C47.8048 29.1155 48.2837 29.5211 49.6563 29.5211V31.5493Z" fill="#DFDFDF"/>
<path d="M61.6155 27.9437L61.6793 30.3775C60.6578 31.4592 59.1894 32 57.8486 32C53.2518 32 50.9853 28.3042 50.9853 20.2817C50.9853 11.8085 53.3476 8.3831 56.9229 8.3831C60.5939 8.3831 62.2858 11.2676 62.2858 17.262C62.2858 17.893 62.2858 18.6592 62.2539 19.6056H53.0922C52.9964 27.1324 54.6245 29.431 57.8806 29.431C59.4447 29.431 60.8174 28.7549 61.6155 27.9437ZM56.9229 10.6817C54.5926 10.6817 53.4434 12.6648 53.188 17.5324H60.2747V16.5859C60.2747 12.5746 59.3171 10.6817 56.9229 10.6817Z" fill="#DFDFDF"/>
<path d="M86.2535 31.5493H79.9009V29.5211H81.6886L81.912 29.2056V15.2789C81.912 11.8535 80.9863 10.907 78.8475 10.907C77.3791 10.907 76.0383 11.493 75.2403 12.2592V29.2056L75.4318 29.5211H77.5706V31.5493H71.1862V29.5211H73.0057L73.1973 29.2056V11.1775L73.0057 10.862H70.8989V8.8338H75.0168C75.1126 9.10423 75.1445 9.46479 75.1445 10.0056C75.1445 10.3211 75.1126 10.907 75.0807 11.2225H75.2403C76.4533 9.19437 77.7621 8.3831 79.5179 8.3831C82.327 8.3831 83.9231 10.3662 83.9231 15.0085V29.2056L84.1466 29.5211H86.2535V31.5493Z" fill="#DFDFDF"/>
<path d="M88.5387 6.62535H87.1341V1.57747H89.8794C89.9432 2.70423 89.9752 4.59718 89.9752 6.12958C89.9752 11.9437 89.0175 13.2958 86.5595 13.9268L86.2722 11.8986C88.1556 11.3577 88.5387 10.7268 88.5387 6.62535Z" fill="#DFDFDF"/>
<path d="M102.814 28.3042C103.42 29.1606 104.569 29.6563 105.719 29.6563C108.304 29.6563 109.837 28.0338 109.837 20.0563C109.837 12.9352 108.464 10.907 106.006 10.907C104.697 10.907 103.484 11.6282 102.814 12.7549V28.3042ZM100.803 31.5493V2.34366L100.579 2.02817H98.4722V0H102.814V11.1324H102.941C103.867 9.10423 105.048 8.3831 106.74 8.3831C109.709 8.3831 111.975 11.4028 111.975 20.0113C111.975 29.0704 109.549 32 106.293 32C104.825 32 103.644 31.2789 102.814 29.7014H102.686L102.271 31.5493H100.803Z" fill="#DFDFDF"/>
<path d="M126.337 31.4592C126.081 31.7296 125.571 31.9099 125.188 31.9099C123.975 31.9099 123.081 31.2789 122.41 29.6563H122.251C121.165 31.1887 119.952 32 118.452 32C115.579 32 114.206 29.5662 114.206 25.7352C114.206 21.2732 115.866 18.9746 120.048 18.9746H122.027V16.1803C122.027 12.2592 121.165 10.9521 118.356 10.9521C117.111 10.9521 115.866 11.3127 115.004 11.7183L114.973 9.37465C115.771 8.78873 117.111 8.3831 118.548 8.3831C121.964 8.3831 124.007 10.3211 124.007 15.8648V28.8451C124.326 29.3859 124.805 29.7465 125.475 29.7465C125.762 29.7465 126.145 29.6113 126.337 29.5211V31.4592ZM122.027 28.7549V21.0028H120.048C117.016 21.0028 116.313 22.4451 116.313 25.5099C116.313 28.1239 116.856 29.6563 119.154 29.6563C120.144 29.6563 121.293 29.2958 122.027 28.7549Z" fill="#DFDFDF"/>
<path d="M141.37 31.5493H139.327C138.529 31.369 137.859 30.738 136.071 26.5465L133.869 21.3634L131.443 25.3746V29.2056L131.634 29.5211H133.518V31.5493H127.42V29.5211H129.24L129.432 29.2056V2.34366L129.24 2.02817H127.101V0H131.443V22.6704H131.602L137.444 11.1775L137.316 10.862H135.21V8.8338H141.179V10.862H139.679L135.241 19.0648L137.827 25.1042C139.519 29.1155 139.998 29.5211 141.37 29.5211V31.5493Z" fill="#DFDFDF"/>
<path d="M153.33 27.9437L153.393 30.3775C152.372 31.4592 150.904 32 149.563 32C144.966 32 142.7 28.3042 142.7 20.2817C142.7 11.8085 145.062 8.3831 148.637 8.3831C152.308 8.3831 154 11.2676 154 17.262C154 17.893 154 18.6592 153.968 19.6056H144.806C144.711 27.1324 146.339 29.431 149.595 29.431C151.159 29.431 152.532 28.7549 153.33 27.9437ZM148.637 10.6817C146.307 10.6817 145.158 12.6648 144.902 17.5324H151.989V16.5859C151.989 12.5746 151.031 10.6817 148.637 10.6817Z" fill="#DFDFDF"/>
</svg>
